<?xml version="1.0" encoding="utf-8"?>
<!-- Generator: Adobe Illustrator 16.0.0, SVG Export Plug-In . SVG Version: 6.00 Build 0)  -->
<!DOCTYPE svg PUBLIC "-//W3C//DTD SVG 1.1//EN" "http://www.w3.org/Graphics/SVG/1.1/DTD/svg11.dtd">
<svg version="1.1" id="Capa_1" xmlns="http://www.w3.org/2000/svg" xmlns:xlink="http://www.w3.org/1999/xlink" x="0px" y="0px"
	 width="150px" height="150px" viewBox="-60.802 -60.594 150 150" enable-background="new -60.802 -60.594 150 150"
	 xml:space="preserve">
<path fill="#FFFFFF" d="M50.286-26.66c5.655,0,10.204-4.543,10.204-10.184v-10.672c0-5.656-4.549-10.204-10.204-10.204
	c-5.626,0-10.193,4.548-10.193,10.204v10.672C40.093-31.203,44.66-26.66,50.286-26.66z"/>
<path fill="#FFFFFF" d="M86.553-40.051H65.996v5.167c0,8.583-6.952,15.55-15.54,15.55s-15.53-6.967-15.53-15.55v-5.167H-6.517v5.167
	c0,8.583-6.952,15.55-15.54,15.55c-8.578,0-15.52-6.967-15.52-15.55v-5.167l-20.727-0.265V89.401l10.358,0.005H76.349l10.349-0.035
	L86.553-40.051z M76.349,79.087H-47.945V-3.799H76.349V79.087z"/>
<path fill="#FFFFFF" d="M-22.212-26.66c5.641,0,10.184-4.543,10.184-10.184v-10.672c0-5.656-4.543-10.204-10.184-10.204
	c-5.635,0-10.204,4.548-10.204,10.204v10.672C-32.415-31.203-27.842-26.66-22.212-26.66z"/>
<path fill="#FFFFFF" d="M-8.532,56.664c3.86-3.311,6.698-8.707,6.698-16.487c0-7.187-2.668-12.193-6.882-15.32
	c-3.87-2.893-8.927-4.354-16.727-4.354c-4.568,0-9.007,0.369-12.368,0.912v39.893c2.239,0.304,5.665,0.604,10.443,0.604
	C-19.394,61.911-12.826,60.216-8.532,56.664z M-28.63,27.929c0.788-0.189,2.165-0.359,4.159-0.359
	c7.97,0,12.937,4.469,12.937,12.912c0,9.705-5.516,14.308-13.909,14.238c-1.087,0-2.404,0-3.192-0.17V27.929H-28.63z"/>
<path fill="#FFFFFF" d="M12.708,51.044h11.64L27.5,61.497h9.964l-12.677-40.69H12.708L0.33,61.497h9.496L12.708,51.044z
	 M16.444,35.534c0.679-2.349,1.287-5.426,1.885-7.85h0.115c0.608,2.424,1.331,5.445,2.064,7.85l2.523,8.643h-8.997L16.444,35.534z"
	/>
<path fill="#FFFFFF" d="M46.531,61.502h9.171V44.521l13.391-23.709H58.78l-4.109,9.775c-1.207,2.888-2.164,5.246-3.077,7.785h-0.125
	c-0.962-2.653-1.854-4.823-3.122-7.785l-4.109-9.775H33.674L46.531,44.83V61.502z"/>
</svg>
