<?xml version="1.0" encoding="utf-8"?>
<!-- Generator: Adobe Illustrator 16.0.0, SVG Export Plug-In . SVG Version: 6.00 Build 0)  -->
<!DOCTYPE svg PUBLIC "-//W3C//DTD SVG 1.1//EN" "http://www.w3.org/Graphics/SVG/1.1/DTD/svg11.dtd">
<svg version="1.1" id="Capa_1" xmlns="http://www.w3.org/2000/svg" xmlns:xlink="http://www.w3.org/1999/xlink" x="0px" y="0px"
	 width="150px" height="150px" viewBox="0 0 150 150" enable-background="new 0 0 150 150" xml:space="preserve">
<path d="M111.089,32.06c5.655,0,10.204-4.543,10.204-10.184V11.204C121.293,5.548,116.744,1,111.089,1
	c-5.626,0-10.193,4.548-10.193,10.204v10.672C100.896,27.517,105.463,32.06,111.089,32.06z"/>
<path d="M147.355,18.669h-20.557v5.167c0,8.583-6.952,15.55-15.54,15.55s-15.53-6.967-15.53-15.55v-5.167H54.286v5.167
	c0,8.583-6.952,15.55-15.54,15.55c-8.578,0-15.52-6.967-15.52-15.55v-5.167L2.499,18.404v129.715l10.358,0.006h124.295l10.349-0.035
	L147.355,18.669z M137.152,137.807H12.858V54.921h124.294V137.807z"/>
<path d="M38.591,32.06c5.641,0,10.184-4.543,10.184-10.184V11.204C48.775,5.548,44.232,1,38.591,1
	c-5.635,0-10.204,4.548-10.204,10.204v10.672C28.388,27.517,32.961,32.06,38.591,32.06z"/>
<path d="M52.271,115.383c3.86-3.311,6.698-8.707,6.698-16.486c0-7.188-2.668-12.193-6.882-15.32
	c-3.87-2.893-8.927-4.354-16.727-4.354c-4.568,0-9.007,0.369-12.368,0.912v39.893c2.239,0.305,5.665,0.604,10.443,0.604
	C41.409,120.631,47.977,118.936,52.271,115.383z M32.173,86.648c0.788-0.189,2.165-0.359,4.159-0.359
	c7.97,0,12.937,4.469,12.937,12.912c0,9.705-5.516,14.309-13.909,14.238c-1.087,0-2.404,0-3.192-0.17V86.648H32.173z"/>
<path d="M73.511,109.764h11.64l3.152,10.453h9.964L85.59,79.527H73.511l-12.378,40.689h9.496L73.511,109.764z M77.246,94.254
	c0.68-2.35,1.287-5.426,1.886-7.85h0.114c0.608,2.424,1.332,5.443,2.064,7.85l2.523,8.643h-8.997L77.246,94.254z"/>
<path d="M107.334,120.221h9.171v-16.98l13.391-23.709h-10.313l-4.108,9.775c-1.207,2.889-2.164,5.246-3.077,7.785h-0.125
	c-0.962-2.654-1.854-4.824-3.121-7.785l-4.109-9.775H94.477l12.857,24.018V120.221z"/>
</svg>
