<?xml version="1.0" encoding="utf-8"?>
<!-- Generator: Adobe Illustrator 16.0.0, SVG Export Plug-In . SVG Version: 6.00 Build 0)  -->
<!DOCTYPE svg PUBLIC "-//W3C//DTD SVG 1.1//EN" "http://www.w3.org/Graphics/SVG/1.1/DTD/svg11.dtd">
<svg version="1.1" id="Capa_1" xmlns="http://www.w3.org/2000/svg" xmlns:xlink="http://www.w3.org/1999/xlink" x="0px" y="0px"
	 width="150px" height="150px" viewBox="325 225 150 150" enable-background="new 325 225 150 150" xml:space="preserve">
<path fill="#FFFFFF" d="M351.174,266.171l35.547,88.536c1.53,3.813,5.857,5.665,9.671,4.13l46.413-18.634
	c3.813-1.53,5.662-5.862,4.132-9.673l-35.549-88.538c-1.53-3.813-5.862-5.663-9.676-4.132l-46.413,18.636
	C351.488,258.028,349.644,262.358,351.174,266.171z M417.792,345.353c-2.403,0.967-5.13-0.195-6.095-2.598
	c-0.962-2.398,0.202-5.126,2.605-6.091c2.396-0.962,5.125,0.2,6.087,2.601C421.353,341.668,420.188,344.391,417.792,345.353z
	 M364.187,266.155l37.786-15.17c1.049-0.422,2.241,0.084,2.666,1.136l27.365,68.158c0.423,1.049-0.089,2.243-1.138,2.664
	l-37.784,15.169c-1.051,0.42-2.244-0.089-2.664-1.138l-27.364-68.158C362.631,267.767,363.138,266.575,364.187,266.155z"/>
<path fill="#FFFFFF" d="M360.103,249.122c-0.026-0.249-0.08-0.488-0.173-0.721c-0.423-1.049-1.507-1.704-2.636-1.598
	c-10.945,1.065-18.99,10.828-17.93,21.781c0.134,1.375,1.437,2.443,2.814,2.312c0.686-0.065,1.305-0.396,1.739-0.925
	c0.441-0.535,0.641-1.206,0.572-1.887c-0.38-3.921,0.793-7.775,3.305-10.826c2.518-3.058,6.064-4.952,9.99-5.327
	C359.195,251.795,360.234,250.537,360.103,249.122z"/>
<path fill="#FFFFFF" d="M356.271,241.821c1.408-0.139,2.448-1.396,2.309-2.807c-0.021-0.247-0.078-0.486-0.171-0.716
	c-0.42-1.052-1.502-1.707-2.635-1.599c-7.911,0.768-15.052,4.574-20.117,10.73c-5.06,6.153-7.433,13.895-6.66,21.813
	c0.143,1.371,1.441,2.436,2.804,2.307c0.685-0.065,1.305-0.392,1.739-0.922c0.438-0.533,0.645-1.199,0.577-1.887
	C332.808,255.209,342.742,243.135,356.271,241.821z"/>
<path fill="#FFFFFF" d="M439.333,348.629c0.059,0.243,0.15,0.472,0.277,0.688c0.567,0.976,1.736,1.467,2.84,1.199
	c10.678-2.634,17.229-13.454,14.599-24.14c-0.33-1.34-1.771-2.208-3.118-1.88c-0.667,0.165-1.232,0.582-1.587,1.167
	c-0.359,0.594-0.457,1.286-0.296,1.952c0.941,3.825,0.341,7.806-1.71,11.189c-2.049,3.387-5.288,5.773-9.115,6.712
	C439.845,345.854,439,347.251,439.333,348.629z"/>
<path fill="#FFFFFF" d="M464.108,322.356c-0.669,0.164-1.229,0.577-1.594,1.164c-0.354,0.591-0.465,1.281-0.3,1.952
	c3.255,13.198-4.84,26.577-18.035,29.825c-1.375,0.343-2.221,1.737-1.885,3.117c0.054,0.241,0.146,0.467,0.27,0.683
	c0.57,0.977,1.739,1.469,2.845,1.199c7.714-1.901,14.233-6.698,18.359-13.518c4.12-6.817,5.348-14.82,3.444-22.546
	C466.878,322.9,465.439,322.032,464.108,322.356z"/>
</svg>
