<?xml version="1.0" encoding="utf-8"?>
<!-- Generator: Adobe Illustrator 16.0.0, SVG Export Plug-In . SVG Version: 6.00 Build 0)  -->
<!DOCTYPE svg PUBLIC "-//W3C//DTD SVG 1.1//EN" "http://www.w3.org/Graphics/SVG/1.1/DTD/svg11.dtd">
<svg version="1.1" id="Layer_1" xmlns="http://www.w3.org/2000/svg" xmlns:xlink="http://www.w3.org/1999/xlink" x="0px" y="0px"
	 width="150px" height="150px" viewBox="-59.399 -59.121 150 150" enable-background="new -59.399 -59.121 150 150"
	 xml:space="preserve">
<path fill="#FFFFFF" d="M-50.142,10.457C-51.295,1.35-46.293-4.16-44.375-5.904c1.778,9.425,11.105,16.67,22.413,16.67
	c10.697,0,19.647-6.511,22.08-15.21c1.841,2.828,4.954,8.656,4.189,14.901c18.996-0.13,9.64-19.071-3.663-21.139
	c-0.102-0.978-0.203-1.943-0.437-2.876c-0.782-5.975-6.928-18.149-24.532-17.785C-39.495-31.035-42.813-21.068-43.6-15
	c-0.536,1.496-0.89,3.065-0.994,4.687C-64.365-7.328-62.19,10.177-50.142,10.457z M-32.64-14.734c0,0,1.95,0.584,1.95,6.12
	c3.354,1.016,9.187-8.605,9.187-8.605v7.572C-17.785-8.766-6.12-9.925-6.12-9.925l0.432,0.314C-5.676-9.442-5.63-9.275-5.63-9.114
	c0,7.845-7.329,14.261-16.339,14.261c-8.89,0-16.107-6.238-16.301-13.948C-35.021-9.84-32.64-14.734-32.64-14.734z"/>
<polygon fill="#FFFFFF" points="4.3,38.907 13.405,36.943 -8.371,11.263 -17.229,11.263 -26.814,11.263 -34.845,11.263 
	-57.21,34.791 -53.23,42 -35.692,24.467 -34.679,31.412 -50.979,55.872 -32.184,55.872 -32.184,77.145 -34.65,77.145 -34.65,79.63 
	-23.4,79.63 -23.4,77.145 -23.4,77.145 -23.4,55.872 -19.182,55.872 -19.182,77.145 -19.182,79.63 -7.951,79.63 -7.951,77.145 
	-10.413,77.145 -10.413,55.872 4.167,55.872 -10.212,31.412 -9.43,22.865 "/>
<path fill="#FFFFFF" d="M48.564-40.402c-5.251,0-12.075,3.912-15.791,6.788c-4.614,3.562-0.976,6.706-0.976,12.662
	c0,10.768,9.522,19.459,21.308,19.459c11.776,0,21.317-8.687,21.317-19.459c0-6.708,2.577-12.857-3.089-16.358
	C67.936-39.386,52.99-40.402,48.564-40.402z M53.602-6.013c-8.619,0-15.593-6.489-15.593-14.488c0-0.818,0.13-1.59,0.26-2.365
	c3.919-0.656,6.574,0.538,6.574,0.538l6.539-2.924c0,0-3.32,4.406-0.328,2.924c6.646-2.042,14.093-1.194,17.891-0.521
	c0.131,0.772,0.261,1.53,0.261,2.348C69.201-12.502,62.227-6.013,53.602-6.013z"/>
<polygon fill="#FFFFFF" points="39.939,1.692 15.837,35.413 23.193,42.502 38.467,17.855 37.734,52.532 41.971,52.532 
	41.971,76.784 39.278,76.784 39.278,79.63 51.542,79.63 51.542,76.784 51.542,52.532 56.136,52.532 56.136,76.784 56.136,79.63 
	68.371,79.63 68.371,76.784 65.692,76.784 65.692,52.532 70.832,52.532 70.832,21.224 84.253,38.29 89.437,30.712 68.115,1.692 "/>
</svg>
