<?xml version="1.0" encoding="utf-8"?>
<!-- Generator: Adobe Illustrator 16.0.0, SVG Export Plug-In . SVG Version: 6.00 Build 0)  -->
<!DOCTYPE svg PUBLIC "-//W3C//DTD SVG 1.1//EN" "http://www.w3.org/Graphics/SVG/1.1/DTD/svg11.dtd">
<svg version="1.1" id="Layer_1" xmlns="http://www.w3.org/2000/svg" xmlns:xlink="http://www.w3.org/1999/xlink" x="0px" y="0px"
	 width="150px" height="150px" viewBox="0 0 150 150" enable-background="new 0 0 150 150" xml:space="preserve">
<g>
	<path d="M9.806,65.843c-1.153-9.106,3.849-14.617,5.767-16.36c1.778,9.425,11.105,16.67,22.413,16.67
		c10.697,0,19.647-6.512,22.08-15.21c1.841,2.827,4.954,8.655,4.189,14.9c18.997-0.13,9.64-19.071-3.663-21.139
		c-0.102-0.979-0.203-1.943-0.437-2.876c-0.782-5.976-6.928-18.149-24.532-17.785c-15.17,0.308-18.488,10.275-19.275,16.343
		c-0.536,1.496-0.89,3.065-0.994,4.688C-4.417,48.058-2.242,65.563,9.806,65.843z M27.308,40.652c0,0,1.95,0.584,1.95,6.119
		c3.354,1.017,9.187-8.604,9.187-8.604v7.572c3.718,0.881,15.383-0.278,15.383-0.278l0.432,0.314
		c0.012,0.169,0.058,0.336,0.058,0.496c0,7.846-7.329,14.262-16.339,14.262c-8.89,0-16.107-6.238-16.301-13.948
		C24.927,45.546,27.308,40.652,27.308,40.652z"/>
	<polygon points="64.248,94.293 73.353,92.329 51.577,66.649 42.719,66.649 33.134,66.649 25.103,66.649 2.738,90.177 6.718,97.386 
		24.256,79.853 25.269,86.798 8.969,111.258 27.764,111.258 27.764,132.53 25.298,132.53 25.298,135.016 36.548,135.016 
		36.548,132.53 36.548,132.53 36.548,111.258 40.766,111.258 40.766,132.53 40.766,135.016 51.997,135.016 51.997,132.53 
		49.535,132.53 49.535,111.258 64.115,111.258 49.736,86.798 50.518,78.251 	"/>
	<path d="M108.513,14.984c-5.251,0-12.075,3.911-15.791,6.787c-4.614,3.563-0.977,6.706-0.977,12.662
		c0,10.769,9.522,19.459,21.309,19.459c11.775,0,21.316-8.687,21.316-19.459c0-6.708,2.577-12.856-3.089-16.357
		C127.885,16,112.938,14.984,108.513,14.984z M113.551,49.373c-8.619,0-15.594-6.489-15.594-14.488c0-0.817,0.131-1.59,0.261-2.365
		c3.919-0.655,6.573,0.538,6.573,0.538l6.539-2.924c0,0-3.319,4.406-0.327,2.924c6.646-2.042,14.093-1.193,17.891-0.521
		c0.131,0.771,0.261,1.53,0.261,2.348C129.149,42.884,122.176,49.373,113.551,49.373z"/>
	<polygon points="99.888,57.078 75.785,90.799 83.142,97.888 98.415,73.241 97.683,107.918 101.92,107.918 101.92,132.17 
		99.227,132.17 99.227,135.016 111.49,135.016 111.49,132.17 111.49,107.918 116.085,107.918 116.085,132.17 116.085,135.016 
		128.319,135.016 128.319,132.17 125.641,132.17 125.641,107.918 130.78,107.918 130.78,76.61 144.201,93.676 149.386,86.098 
		128.063,57.078 	"/>
</g>
</svg>
