<?xml version="1.0" encoding="utf-8"?>
<!-- Generator: Adobe Illustrator 16.0.0, SVG Export Plug-In . SVG Version: 6.00 Build 0)  -->
<!DOCTYPE svg PUBLIC "-//W3C//DTD SVG 1.1//EN" "http://www.w3.org/Graphics/SVG/1.1/DTD/svg11.dtd">
<svg version="1.1" xmlns="http://www.w3.org/2000/svg" xmlns:xlink="http://www.w3.org/1999/xlink" x="0px" y="0px"
	  viewBox="0 0 17.894 17.893" enable-background="new 0 0 17.894 17.893" xml:space="preserve">
<g id="Layer_4">
</g>
<g id="why_and_what">
</g>
<g id="Menu">
	<path fill="#302F2D" d="M15.637,0H2.258C1.01,0,0,1.01,0,2.256v13.381c0,1.246,1.011,2.256,2.258,2.256h13.38
		c1.245,0,2.256-1.01,2.256-2.256V2.256C17.894,1.01,16.883,0,15.637,0z M8.947,6.325c1.446,0,2.621,1.176,2.621,2.623
		c0,1.444-1.175,2.62-2.621,2.62c-1.445,0-2.621-1.176-2.621-2.62C6.326,7.501,7.502,6.325,8.947,6.325z M15.813,14.684
		c0,0.623-0.579,1.129-1.202,1.129H3.328c-0.623,0-1.247-0.506-1.247-1.129V9.043c0-0.623,0.624-1.136,1.247-1.136h0.629
		c0.119,0,0.23,0.05,0.311,0.14c0.078,0.09,0.114,0.209,0.1,0.325C4.342,8.561,4.328,8.753,4.328,8.948
		c0,2.546,2.072,4.616,4.619,4.616s4.619-2.07,4.619-4.616c0-0.195-0.014-0.388-0.038-0.576c-0.015-0.118,0.021-0.235,0.1-0.325
		c0.077-0.09,0.191-0.14,0.311-0.14h0.673c0.623,0,1.203,0.513,1.203,1.136L15.813,14.684L15.813,14.684z M15.814,4.282
		L15.814,4.282c-0.001,0.622-0.506,1.128-1.129,1.128h-1.073c-0.622,0-1.128-0.506-1.128-1.128V3.209
		c0-0.623,0.506-1.127,1.128-1.127h1.073c0.623,0,1.129,0.504,1.129,1.127V4.282z"/>
</g>
<g id="Guides" display="none">
</g>
</svg>
