<?xml version="1.0" encoding="UTF-8" standalone="no"?>
<!-- Created with Inkscape (http://www.inkscape.org/) -->

<svg
   xmlns:dc="http://purl.org/dc/elements/1.1/"
   xmlns:cc="http://creativecommons.org/ns#"
   xmlns:rdf="http://www.w3.org/1999/02/22-rdf-syntax-ns#"
   xmlns:svg="http://www.w3.org/2000/svg"
   xmlns="http://www.w3.org/2000/svg"
   xmlns:sodipodi="http://sodipodi.sourceforge.net/DTD/sodipodi-0.dtd"
   xmlns:inkscape="http://www.inkscape.org/namespaces/inkscape"
   width="50"
   height="50"
   id="svg2"
   version="1.1"
   inkscape:version="0.48.4 r9939"
   sodipodi:docname="face.svg">
  <defs
     id="defs4" />
  <sodipodi:namedview
     id="base"
     pagecolor="#ffffff"
     bordercolor="#666666"
     borderopacity="1.0"
     inkscape:pageopacity="0.0"
     inkscape:pageshadow="2"
     inkscape:zoom="5.6"
     inkscape:cx="7.2670547"
     inkscape:cy="1.1915688"
     inkscape:document-units="pt"
     inkscape:current-layer="layer1"
     showgrid="false"
     inkscape:snap-page="true"
     inkscape:window-width="1631"
     inkscape:window-height="1026"
     inkscape:window-x="1969"
     inkscape:window-y="24"
     inkscape:window-maximized="1" />
  <metadata
     id="metadata7">
    <rdf:RDF>
      <cc:Work
         rdf:about="">
        <dc:format>image/svg+xml</dc:format>
        <dc:type
           rdf:resource="http://purl.org/dc/dcmitype/StillImage" />
        <dc:title></dc:title>
      </cc:Work>
    </rdf:RDF>
  </metadata>
  <g
     inkscape:label="Layer 1"
     inkscape:groupmode="layer"
     id="layer1"
     transform="translate(0,-1002.3622)">
    <path
       d="m 222.73133,1054.2898 c 4.07652,-0.3363 6.84097,-2.1894 7.90546,-4.7039 -1.47093,0.9032 -6.03534,1.8879 -8.55625,0.95 -0.12338,-0.5919 -0.26128,-1.1548 -0.39676,-1.6629 -1.92093,-7.053 -8.49738,-12.7352 -15.38835,-12.0489 0.55725,-0.225 1.12255,-0.4347 1.68706,-0.6226 0.75804,-0.2717 5.20874,-0.9959 4.50795,-2.5668 -0.59111,-1.3814 -6.02808,1.0443 -7.05144,1.3612 1.35077,-0.508 3.5862,-1.3822 3.82491,-2.9354 -2.07011,0.2839 -4.10232,1.2629 -5.67245,2.6862 0.56692,-0.6104 0.99675,-1.354 1.08788,-2.1547 -5.52245,3.5281 -8.74818,10.6408 -11.3586,17.5399 -2.04995,-1.9863 -3.86685,-3.5508 -5.49665,-4.4193 -4.57247,-2.4524 -10.03927,-5.0104 -18.62133,-8.1966 -0.26371,2.8395 1.404,6.6152 6.20953,9.1256 -1.0411,-0.1395 -2.94509,0.1718 -4.46764,0.5363 0.62015,3.2531 2.6451,5.9329 8.12804,7.2289 -2.50559,0.1653 -3.80072,0.7354 -4.97408,1.9644 1.1411,2.2621 3.92572,4.9249 8.93528,4.3782 -5.56923,2.4007 -2.27092,6.8466 2.26123,6.1829 -7.73127,7.9853 -19.9205,7.399 -26.91952,0.7201 18.27457,24.9018 57.99943,14.7271 63.91945,-9.2586 4.43457,0.038 7.04258,-1.5363 8.65947,-3.2717 -2.55558,0.4338 -6.25872,-0.014 -8.22319,-0.8323 z"
       id="Twitter__x28_alt_x29_"
       inkscape:connector-curvature="0" />
    <path
       id="path2995"
       d="M 43.581942,1002.8856 H 6.1905005 c -3.481924,0 -6.30524708,2.8234 -6.30524708,6.3043 v 37.3905 c 0,3.4819 2.82332308,6.3052 6.30524708,6.3052 H 43.581942 c 3.48006,0 6.30338,-2.8233 6.30338,-6.3052 v -37.3905 c 7.8e-4,-3.4809 -2.82239,-6.3043 -6.30338,-6.3043 z m -18.69619,17.6748 c 4.04008,0 7.32573,3.2865 7.32573,7.3257 0,4.04 -3.28565,7.3257 -7.32573,7.3257 -4.039149,0 -7.325719,-3.2857 -7.325719,-7.3257 0,-4.0392 3.28657,-7.3257 7.325719,-7.3257 z m 19.18642,23.3558 c 0,1.7405 -1.61957,3.1563 -3.361,3.1563 H 9.1831245 c -1.742363,0 -3.483794,-1.4149 -3.483794,-3.1563 v -15.7641 c 0,-1.7404 1.741431,-3.173 3.483794,-3.173 h 1.7572415 c 0.331169,0 0.64652,0.1432 0.86606,0.3916 0.218611,0.2493 0.320941,0.5814 0.278151,0.9098 -0.0688,0.5256 -0.106051,1.0614 -0.106051,1.6056 0,7.1164 5.789878,12.9072 12.907226,12.9072 7.11642,0 12.90723,-5.7908 12.90723,-12.9072 0,-0.5442 -0.0372,-1.08 -0.10512,-1.6056 -0.0437,-0.3293 0.0577,-0.6605 0.27629,-0.9107 0.21955,-0.2493 0.5349,-0.3917 0.86792,-0.3917 h 1.88004 c 1.74142,0 3.361,1.4326 3.361,3.174 v 15.7641 z m 7.9e-4,-29.0676 0,0 c -7.9e-4,1.7414 -1.41306,3.1536 -3.15356,3.1536 h -2.99634 c -1.74235,0 -3.15447,-1.4122 -3.15447,-3.1536 v -2.9963 c 0,-1.7405 1.41212,-3.1527 3.15447,-3.1527 h 2.99634 c 1.7405,0 3.15356,1.4122 3.15356,3.1527 v 2.9963 z"
       inkscape:connector-curvature="0"
       style="fill:#ffffff" />
    <path
       d="m 132.54191,1081.6727 c 0,-4.3789 -3.95334,-8.3339 -8.33334,-8.3339 H 90.87523 c -4.38,0 -8.33333,3.955 -8.33333,8.3339 v 33.3322 c 0,4.3789 3.95333,8.3339 8.33389,8.3339 h 16.66612 v -18.8889 h -6.11112 v -8.3333 h 6.11112 v -3.2467 c 0,-5.5994 4.205,-10.6422 9.375,-10.6422 h 6.73611 v 8.3333 h -6.73611 c -0.73723,0 -1.59723,0.895 -1.59723,2.2356 v 3.32 h 8.33334 v 8.3333 h -8.33334 v 18.8889 h 8.88889 c 4.38,0 8.33334,-3.955 8.33334,-8.3339 v -33.3322 z"
       id="Facebook__x28_alt_x29_"
       inkscape:connector-curvature="0"
       style="fill:#ffffff" />
  </g>
</svg>
