<?xml version="1.0" encoding="utf-8"?>
<!-- Generator: Adobe Illustrator 16.0.0, SVG Export Plug-In . SVG Version: 6.00 Build 0)  -->
<!DOCTYPE svg PUBLIC "-//W3C//DTD SVG 1.1//EN" "http://www.w3.org/Graphics/SVG/1.1/DTD/svg11.dtd">
<svg version="1.1" xmlns="http://www.w3.org/2000/svg" xmlns:xlink="http://www.w3.org/1999/xlink" x="0px" y="0px"
	 viewBox="0 0 18.147 17.893" enable-background="new 0 0 18.147 17.893" xml:space="preserve">
<g id="Layer_4">
</g>
<g id="why_and_what">
</g>
<g id="Menu">
	<g>
		<path fill="#302F2D" d="M4.11,1.941c0,1.072-0.792,1.939-2.093,1.939C0.792,3.881,0,3.014,0,1.941C0,0.844,0.816,0,2.068,0
			C3.318,0,4.085,0.844,4.11,1.941z M0.103,17.893V5.412h3.879v12.48H0.103z"/>
		<path fill="#302F2D" d="M6.305,9.395c0-1.557-0.052-2.859-0.103-3.982h3.368L9.75,7.148h0.077c0.51-0.817,1.762-2.018,3.854-2.018
			c2.553,0,4.467,1.711,4.467,5.387v7.375h-3.88v-6.916c0-1.608-0.561-2.705-1.965-2.705c-1.072,0-1.709,0.74-1.99,1.455
			c-0.102,0.255-0.128,0.611-0.128,0.97v7.196H6.305V9.395z"/>
	</g>
</g>
<g id="Guides" display="none">
</g>
</svg>
