<?xml version="1.0" encoding="utf-8"?>
<!-- Generator: Adobe Illustrator 16.0.0, SVG Export Plug-In . SVG Version: 6.00 Build 0)  -->
<!DOCTYPE svg PUBLIC "-//W3C//DTD SVG 1.1//EN" "http://www.w3.org/Graphics/SVG/1.1/DTD/svg11.dtd">
<svg version="1.1" xmlns="http://www.w3.org/2000/svg" xmlns:xlink="http://www.w3.org/1999/xlink" x="0px" y="0px"
	  viewBox="0 0 276.761 69.071" enable-background="new 0 0 276.761 69.071"
	 xml:space="preserve">
<g id="Layer_4">
</g>
<g id="why_and_what">
</g>
<g id="Menu">
	<g>
		<g>
			<g>
				<g>
					<g>
						<path fill-rule="evenodd" clip-rule="evenodd" fill="#302F2D" d="M18.275,0c1.043,0,1.837,0,2.724,0
							c0.299,2.173,0.507,4.33,0.914,6.441c1.186,6.156,3.437,11.797,8.249,16.097c0.84,0.757,1.764,1.499,2.788,1.957
							c0.971,0.428,1.089,0.948,0.937,1.867c-1.853,11.424-3.679,22.859-5.518,34.287c-0.053,0.318-0.154,0.626-0.247,0.99
							c-7.427,0-14.803,0-22.281,0C3.886,49.477,1.94,37.36,0,25.244c9.72-5.615,11.935-15.061,13.003-25.196
							c0.829,0,1.618,0,2.496,0"/>
					</g>
				</g>
				<rect x="16.442" fill-rule="evenodd" clip-rule="evenodd" fill="#FFFFFF" width="0.856" height="32.118"/>
				<path fill-rule="evenodd" clip-rule="evenodd" fill="#FFFFFF" d="M13.733,32.118c0-1.736,1.404-3.136,3.135-3.136
					c1.734,0,3.138,1.4,3.138,3.136c0,1.727-1.404,3.136-3.138,3.136C15.137,35.254,13.733,33.845,13.733,32.118z"/>
				<g>
					<rect x="6.094" y="66.258" fill-rule="evenodd" clip-rule="evenodd" fill="#302F2D" width="22.194" height="2.703"/>
				</g>
				<g>
					<rect x="6.094" y="62.671" fill-rule="evenodd" clip-rule="evenodd" fill="#302F2D" width="22.194" height="2.523"/>
				</g>
			</g>
		</g>
		<g>
			<path fill="#302F2D" d="M60.042,49.869V3.69h8.099v46.179H60.042z"/>
			<path fill="#302F2D" d="M98.733,31.591V3.69h8.238v27.696c0,7.337,4.088,12.114,11.771,12.114
				c7.685,0,11.769-4.777,11.769-12.114V3.69h8.24v27.901c0,11.424-6.578,19.108-20.009,19.108
				C105.382,50.699,98.733,43.015,98.733,31.591z"/>
			<path fill="#302F2D" d="M195.708,49.869l-10.176-17.239h-8.1v17.239h-8.102V3.69h20.285c9.14,0,15.16,5.885,15.16,14.47
				c0,8.171-5.399,12.669-11.005,13.569l11.353,18.14H195.708z M196.468,18.093c0-4.432-3.32-7.271-7.89-7.271h-11.146v14.677
				h11.146C193.148,25.499,196.468,22.591,196.468,18.093z"/>
			<path fill="#302F2D" d="M266.035,49.869l-3.394-8.931h-21.185l-3.394,8.931h-9.205L246.995,3.69h10.107l18.137,46.179H266.035z
				 M252.048,11.792l-8.306,22.014h16.615L252.048,11.792z"/>
		</g>
		<g>
			<g>
				<path fill="#58595B" d="M63.328,68.892l-0.675-1.751H58.46l-0.67,1.751h-1.823l3.591-9.137h1.999l3.591,9.137H63.328z
					 M60.558,61.37l-1.644,4.356h3.288L60.558,61.37z"/>
				<path fill="#58595B" d="M70.895,67.605l0.893-1.234c0.626,0.672,1.616,1.262,2.887,1.262c1.317,0,1.837-0.645,1.837-1.245
					c0-1.92-5.327-0.728-5.327-4.098c0-1.508,1.326-2.67,3.329-2.67c1.425,0,2.576,0.451,3.423,1.273l-0.918,1.19
					c-0.712-0.712-1.683-1.038-2.643-1.038c-0.946,0-1.549,0.451-1.549,1.137c0,1.697,5.316,0.643,5.316,4.052
					c0,1.522-1.068,2.825-3.534,2.825C72.923,69.058,71.706,68.468,70.895,67.605z"/>
				<path fill="#58595B" d="M85.097,68.892v-9.137h6.262v1.414h-4.657v2.369h4.561v1.412h-4.561v2.533h4.657v1.411H85.097z"/>
				<path fill="#58595B" d="M97.886,67.605l0.891-1.234c0.628,0.672,1.616,1.262,2.889,1.262c1.317,0,1.837-0.645,1.837-1.245
					c0-1.92-5.329-0.728-5.329-4.098c0-1.508,1.328-2.67,3.329-2.67c1.425,0,2.574,0.451,3.425,1.273l-0.918,1.19
					c-0.711-0.712-1.685-1.038-2.643-1.038c-0.946,0-1.549,0.451-1.549,1.137c0,1.697,5.316,0.643,5.316,4.052
					c0,1.522-1.068,2.825-3.534,2.825C99.913,69.058,98.694,68.468,97.886,67.605z"/>
				<path fill="#58595B" d="M111.677,64.331c0-2.728,1.932-4.726,4.671-4.726c2.742,0,4.673,1.998,4.673,4.726
					c0,2.726-1.932,4.727-4.673,4.727C113.608,69.058,111.677,67.057,111.677,64.331z M119.377,64.331
					c0-1.892-1.192-3.301-3.029-3.301c-1.849,0-3.025,1.409-3.025,3.301c0,1.876,1.177,3.301,3.025,3.301
					C118.185,67.632,119.377,66.208,119.377,64.331z"/>
				<path fill="#58595B" d="M133.263,68.892l-2.028-3.409h-1.589v3.409h-1.604v-9.137h4.015c1.807,0,2.988,1.179,2.988,2.864
					c0,1.63-1.068,2.504-2.167,2.684l2.233,3.589H133.263z M133.398,62.619c0-0.877-0.656-1.451-1.561-1.451h-2.192v2.901h2.192
					C132.742,64.069,133.398,63.496,133.398,62.619z"/>
				<path fill="#58595B" d="M142.117,68.892v-9.137h1.604v9.137H142.117z"/>
				<path fill="#58595B" d="M157.542,68.892l-0.672-1.751h-4.192l-0.67,1.751h-1.823l3.589-9.137h1.999l3.591,9.137H157.542z
					 M154.774,61.37l-1.646,4.356h3.288L154.774,61.37z"/>
				<path fill="#58595B" d="M165.109,67.605l0.893-1.234c0.629,0.672,1.616,1.262,2.89,1.262c1.317,0,1.835-0.645,1.835-1.245
					c0-1.92-5.328-0.728-5.328-4.098c0-1.508,1.326-2.67,3.329-2.67c1.425,0,2.574,0.451,3.423,1.273l-0.916,1.19
					c-0.712-0.712-1.688-1.038-2.646-1.038c-0.946,0-1.549,0.451-1.549,1.137c0,1.697,5.316,0.643,5.316,4.052
					c0,1.522-1.068,2.825-3.532,2.825C167.138,69.058,165.919,68.468,165.109,67.605z"/>
				<path fill="#58595B" d="M188.309,68.892v-9.137h1.602v7.727h4.029v1.411H188.309z"/>
				<path fill="#58595B" d="M200.866,68.892v-9.137h6.262v1.414h-4.657v2.369h4.563v1.412h-4.563v2.533h4.657v1.411H200.866z"/>
				<path fill="#58595B" d="M213.836,64.331c0-2.864,2.15-4.726,4.795-4.726c1.782,0,2.945,0.847,3.686,1.903L221,62.248
					c-0.479-0.686-1.342-1.218-2.369-1.218c-1.809,0-3.151,1.384-3.151,3.301c0,1.918,1.342,3.315,3.151,3.315
					c0.931,0,1.752-0.44,2.165-0.822v-1.425h-2.726v-1.411h4.331v3.426c-0.907,1.001-2.178,1.657-3.769,1.657
					C215.986,69.071,213.836,67.193,213.836,64.331z"/>
				<path fill="#58595B" d="M235.873,68.892l-0.672-1.751h-4.194l-0.668,1.751h-1.826l3.592-9.137h1.999l3.591,9.137H235.873z
					 M233.106,61.37l-1.646,4.356h3.288L233.106,61.37z"/>
				<path fill="#58595B" d="M244.168,68.892v-9.137h1.603v7.727h4.029v1.411H244.168z"/>
				<path fill="#58595B" d="M256.725,68.892v-9.137h6.262v1.414h-4.657v2.369h4.563v1.412h-4.563v2.533h4.657v1.411H256.725z"/>
				<path fill="#58595B" d="M269.514,67.605l0.893-1.234c0.628,0.672,1.616,1.262,2.889,1.262c1.314,0,1.835-0.645,1.835-1.245
					c0-1.92-5.327-0.728-5.327-4.098c0-1.508,1.326-2.67,3.329-2.67c1.425,0,2.574,0.451,3.424,1.273l-0.919,1.19
					c-0.711-0.712-1.685-1.038-2.643-1.038c-0.946,0-1.55,0.451-1.55,1.137c0,1.697,5.316,0.643,5.316,4.052
					c0,1.522-1.068,2.825-3.534,2.825C271.542,69.058,270.324,68.468,269.514,67.605z"/>
			</g>
		</g>
	</g>
</g>
<g id="Guides" display="none">
	
		<line display="inline" opacity="0.5" fill="none" stroke="#000000" stroke-miterlimit="10" x1="160" y1="-1505.909" x2="160" y2="1847.862"/>
</g>
</svg>
