<?xml version="1.0" encoding="utf-8"?>
<!-- Generator: Adobe Illustrator 16.0.0, SVG Export Plug-In . SVG Version: 6.00 Build 0)  -->
<!DOCTYPE svg PUBLIC "-//W3C//DTD SVG 1.1//EN" "http://www.w3.org/Graphics/SVG/1.1/DTD/svg11.dtd">
<svg version="1.1" id="Capa_1" xmlns="http://www.w3.org/2000/svg" xmlns:xlink="http://www.w3.org/1999/xlink" x="0px" y="0px"
	  viewBox="0 0 364 156" enable-background="new 0 0 364 156" xml:space="preserve">
<g>
	
		<linearGradient id="SVGID_1_" gradientUnits="userSpaceOnUse" x1="-469.4619" y1="287.7686" x2="-303.4233" y2="287.7686" gradientTransform="matrix(1 0 0 -1 564 391)">
		<stop  offset="0.0061" style="stop-color:#CDD534"/>
		<stop  offset="1" style="stop-color:#046636"/>
	</linearGradient>
	<path fill="url(#SVGID_1_)" d="M137.172,87.381c0,1.169-0.418,2.135-1.255,2.889c-0.836,0.752-1.759,1.127-2.763,1.127
		c-1.005,0-1.924-0.375-2.763-1.127c-0.838-0.754-1.255-1.72-1.255-2.889c0-1.175,0.417-2.137,1.255-2.892
		c0.839-0.753,1.758-1.128,2.763-1.128c1.003,0,1.926,0.375,2.763,1.128C136.753,85.244,137.172,86.206,137.172,87.381z
		 M135.917,123.102h-5.525V94.479h5.525V123.102z"/>
	
		<linearGradient id="SVGID_2_" gradientUnits="userSpaceOnUse" x1="-469.46" y1="291.4512" x2="-303.425" y2="291.4512" gradientTransform="matrix(1 0 0 -1 564 391)">
		<stop  offset="0.0061" style="stop-color:#CDD534"/>
		<stop  offset="1" style="stop-color:#046636"/>
	</linearGradient>
	<path fill="url(#SVGID_2_)" d="M148.682,75.996v47.105h-5.525V75.996C146.336,76.176,148.682,75.996,148.682,75.996z"/>
	
		<linearGradient id="SVGID_3_" gradientUnits="userSpaceOnUse" x1="-469.4614" y1="292.8828" x2="-303.4265" y2="292.8828" gradientTransform="matrix(1 0 0 -1 564 391)">
		<stop  offset="0.0061" style="stop-color:#CDD534"/>
		<stop  offset="1" style="stop-color:#046636"/>
	</linearGradient>
	<path fill="url(#SVGID_3_)" d="M159.136,73.134v49.968h-5.525V75.175C157.082,74.201,159.136,73.134,159.136,73.134z"/>
	
		<linearGradient id="SVGID_4_" gradientUnits="userSpaceOnUse" x1="-469.459" y1="298.0664" x2="-303.4278" y2="298.0664" gradientTransform="matrix(1 0 0 -1 564 391)">
		<stop  offset="0.0061" style="stop-color:#CDD534"/>
		<stop  offset="1" style="stop-color:#046636"/>
	</linearGradient>
	<path fill="url(#SVGID_4_)" d="M203.105,92.936c0,2.957-0.516,5.692-1.547,8.201c-1.035,2.516-2.471,4.688-4.311,6.53
		c-1.844,1.844-4.033,3.281-6.572,4.312c-2.541,1.033-5.344,1.547-8.415,1.547c-3.015,0-5.79-0.514-8.329-1.547
		c-2.542-1.029-4.731-2.468-6.571-4.312c-1.842-1.842-3.279-4.017-4.313-6.53c-1.032-2.509-1.547-5.244-1.547-8.201
		c0-2.959,0.515-5.693,1.547-8.205c1.034-2.511,2.471-4.688,4.313-6.529c1.84-1.841,4.029-3.277,6.571-4.31
		c2.539-1.033,5.314-1.549,8.329-1.549c3.071,0,5.874,0.516,8.415,1.549c2.539,1.032,4.73,2.469,6.572,4.31
		c1.84,1.842,3.275,4.02,4.311,6.529C202.59,87.241,203.105,89.977,203.105,92.936z M197.08,92.936c0-2.177-0.352-4.213-1.047-6.112
		c-0.699-1.896-1.688-3.54-2.973-4.938c-1.285-1.395-2.832-2.498-4.646-3.307c-1.814-0.808-3.863-1.213-6.153-1.213
		c-2.289,0-4.338,0.405-6.151,1.213c-1.815,0.809-3.351,1.912-4.606,3.307c-1.257,1.398-2.231,3.042-2.929,4.938
		c-0.699,1.899-1.05,3.937-1.05,6.112s0.351,4.215,1.05,6.109c0.697,1.896,1.672,3.546,2.929,4.939
		c1.255,1.396,2.792,2.496,4.606,3.306c1.813,0.812,3.862,1.216,6.151,1.216c2.29,0,4.338-0.404,6.153-1.216
		c1.813-0.81,3.361-1.908,4.646-3.306c1.285-1.395,2.271-3.043,2.973-4.939C196.729,97.148,197.08,95.111,197.08,92.936z"/>
	
		<linearGradient id="SVGID_5_" gradientUnits="userSpaceOnUse" x1="-469.4727" y1="293.751" x2="-303.4163" y2="293.751" gradientTransform="matrix(1 0 0 -1 564 391)">
		<stop  offset="0.0061" style="stop-color:#CDD534"/>
		<stop  offset="1" style="stop-color:#046636"/>
	</linearGradient>
	<path fill="url(#SVGID_5_)" d="M190.246,104.146l-4.406-13.795h6.531l2.283,7.705C192.717,102.68,190.246,104.146,190.246,104.146z
		"/>
	
		<linearGradient id="SVGID_6_" gradientUnits="userSpaceOnUse" x1="-469.4619" y1="296.2285" x2="-303.4255" y2="296.2285" gradientTransform="matrix(1 0 0 -1 564 391)">
		<stop  offset="0.0061" style="stop-color:#CDD534"/>
		<stop  offset="1" style="stop-color:#046636"/>
	</linearGradient>
	<path fill="url(#SVGID_6_)" d="M247.035,67.065L229.1,123.1h-6.195l-10.381-32.146h-0.166L201.979,123.1h-6.195l-3.135-10.15
		c0,0,2.191-0.811,4.678-2.914l1.641,5.697h0.164l10.467-31.81h5.691l10.463,31.81h0.168l15.783-49.289"/>
	<g>
		
			<linearGradient id="SVGID_7_" gradientUnits="userSpaceOnUse" x1="-469.4604" y1="307.2607" x2="-303.4297" y2="307.2607" gradientTransform="matrix(1 0 0 -1 564 391)">
			<stop  offset="0.0061" style="stop-color:#CDD534"/>
			<stop  offset="1" style="stop-color:#046636"/>
		</linearGradient>
		<path fill="url(#SVGID_7_)" d="M123.157,123.102h-6.19V44.377h6.19V123.102z"/>
		
			<linearGradient id="SVGID_8_" gradientUnits="userSpaceOnUse" x1="-469.4614" y1="346.623" x2="-303.426" y2="346.623" gradientTransform="matrix(1 0 0 -1 564 391)">
			<stop  offset="0.0061" style="stop-color:#CDD534"/>
			<stop  offset="1" style="stop-color:#046636"/>
		</linearGradient>
		<path fill="url(#SVGID_8_)" d="M174.869,44.377c0,4.235-0.729,8.13-2.194,11.687c-1.468,3.56-3.494,6.633-6.082,9.222
			c-2.589,2.591-5.648,4.616-9.178,6.081c-3.534,1.462-7.364,2.197-11.496,2.197c-4.133,0-7.963-0.735-11.494-2.197
			c-3.53-1.464-6.59-3.489-9.179-6.081c-2.589-2.588-4.617-5.662-6.082-9.222c-1.464-3.557-2.198-7.452-2.198-11.687
			c0-4.238,0.733-8.134,2.198-11.693c1.464-3.555,3.492-6.628,6.082-9.219c2.589-2.588,5.648-4.612,9.179-6.078
			c3.531-1.463,7.361-2.198,11.494-2.198c4.132,0,7.962,0.735,11.496,2.198c3.53,1.466,6.589,3.49,9.178,6.078
			c2.587,2.591,4.614,5.664,6.082,9.219C174.14,36.243,174.869,40.14,174.869,44.377z M168.751,44.377
			c0-3.188-0.524-6.239-1.57-9.14c-1.048-2.905-2.55-5.455-4.512-7.65c-1.961-2.2-4.352-3.948-7.179-5.256
			c-2.825-1.305-6.015-1.965-9.572-1.965s-6.747,0.66-9.57,1.965c-2.827,1.308-5.22,3.056-7.181,5.256
			c-1.962,2.195-3.464,4.746-4.51,7.65c-1.048,2.901-1.57,5.952-1.57,9.14c0,3.19,0.522,6.236,1.57,9.139
			c1.046,2.902,2.548,5.453,4.51,7.65c1.961,2.198,4.354,3.952,7.181,5.257c2.823,1.306,6.014,1.962,9.57,1.962
			s6.747-0.656,9.572-1.962c2.827-1.305,5.218-3.059,7.179-5.257c1.962-2.197,3.464-4.748,4.512-7.65
			C168.228,50.613,168.751,47.567,168.751,44.377z"/>
		<linearGradient id="SVGID_9_" gradientUnits="userSpaceOnUse" x1="123.1567" y1="68.2471" x2="123.1567" y2="68.2471">
			<stop  offset="0.0061" style="stop-color:#CDD534"/>
			<stop  offset="1" style="stop-color:#046636"/>
		</linearGradient>
		<line fill="url(#SVGID_9_)" x1="123.157" y1="62.931" x2="123.157" y2="73.563"/>
	</g>
	<linearGradient id="SVGID_10_" gradientUnits="userSpaceOnUse" x1="116.9663" y1="79.9648" x2="116.9663" y2="79.9648">
		<stop  offset="0.0061" style="stop-color:#CDD534"/>
		<stop  offset="1" style="stop-color:#046636"/>
	</linearGradient>
	<line fill="url(#SVGID_10_)" x1="116.966" y1="40.075" x2="116.966" y2="119.854"/>
</g>
<g>
	<path fill="#3D3D3F" d="M160.004,138.987c-0.383,0.198-1.188,0.396-2.203,0.396c-2.354,0-4.112-1.484-4.112-4.234
		c0-2.625,1.77-4.386,4.36-4.386c1.026,0,1.695,0.226,1.98,0.371l-0.273,0.882c-0.395-0.198-0.977-0.347-1.67-0.347
		c-1.958,0-3.258,1.251-3.258,3.442c0,2.055,1.176,3.355,3.195,3.355c0.667,0,1.338-0.136,1.771-0.346L160.004,138.987z"/>
	<path fill="#3D3D3F" d="M167.854,136.202c0,2.215-1.547,3.181-2.983,3.181c-1.61,0-2.875-1.188-2.875-3.083
		c0-1.993,1.327-3.17,2.973-3.17C166.691,133.13,167.854,134.381,167.854,136.202z M163.11,136.262c0,1.313,0.744,2.305,1.811,2.305
		c1.039,0,1.82-0.978,1.82-2.328c0-1.016-0.51-2.29-1.797-2.29C163.67,133.948,163.11,135.137,163.11,136.262z"/>
	<path fill="#3D3D3F" d="M170.466,134.875c0-0.63-0.024-1.125-0.049-1.622h0.953l0.05,0.979h0.038
		c0.334-0.57,0.891-1.103,1.895-1.103c0.804,0,1.424,0.494,1.685,1.201h0.023c0.186-0.348,0.432-0.595,0.681-0.78
		c0.359-0.274,0.744-0.421,1.313-0.421c0.807,0,1.982,0.521,1.982,2.602v3.516h-1.065v-3.38c0-1.166-0.433-1.847-1.3-1.847
		c-0.632,0-1.102,0.46-1.3,0.979c-0.05,0.159-0.087,0.347-0.087,0.547v3.701h-1.065v-3.59c0-0.956-0.419-1.637-1.25-1.637
		c-0.669,0-1.177,0.545-1.351,1.091c-0.061,0.149-0.088,0.347-0.088,0.532v3.604h-1.064V134.875z"/>
	<path fill="#3D3D3F" d="M182.031,135.21c0-0.768-0.027-1.387-0.051-1.957h0.966l0.063,1.027h0.023
		c0.434-0.729,1.153-1.15,2.131-1.15c1.461,0,2.553,1.227,2.553,3.034c0,2.155-1.326,3.219-2.738,3.219
		c-0.792,0-1.486-0.346-1.846-0.94h-0.023v3.257h-1.078V135.21z M183.109,136.809c0,0.16,0.012,0.31,0.048,0.445
		c0.2,0.754,0.855,1.274,1.635,1.274c1.151,0,1.82-0.939,1.82-2.314c0-1.188-0.63-2.217-1.782-2.217
		c-0.744,0-1.449,0.52-1.646,1.338c-0.039,0.136-0.074,0.297-0.074,0.433V136.809z"/>
	<path fill="#3D3D3F" d="M194.523,137.811c0,0.521,0.025,1.027,0.087,1.437h-0.977l-0.087-0.755h-0.037
		c-0.336,0.47-0.979,0.891-1.832,0.891c-1.217,0-1.836-0.854-1.836-1.721c0-1.448,1.289-2.242,3.605-2.229v-0.126
		c0-0.48-0.135-1.387-1.361-1.374c-0.57,0-1.154,0.161-1.573,0.447l-0.249-0.73c0.496-0.309,1.227-0.521,1.982-0.521
		c1.834,0,2.277,1.251,2.277,2.438V137.811z M193.473,136.188c-1.189-0.024-2.541,0.186-2.541,1.351c0,0.718,0.472,1.04,1.017,1.04
		c0.794,0,1.3-0.496,1.476-1.004c0.035-0.124,0.049-0.247,0.049-0.348V136.188z"/>
	<path fill="#3D3D3F" d="M197.521,134.875c0-0.63-0.013-1.125-0.05-1.622h0.965l0.063,0.992h0.023
		c0.299-0.559,0.994-1.115,1.982-1.115c0.83,0,2.117,0.494,2.117,2.55v3.567h-1.088v-3.454c0-0.966-0.36-1.772-1.388-1.772
		c-0.706,0-1.264,0.507-1.462,1.116c-0.049,0.135-0.074,0.321-0.074,0.507v3.604h-1.089V134.875z"/>
	<path fill="#3D3D3F" d="M205.865,133.253l1.301,3.541c0.148,0.398,0.297,0.868,0.395,1.228h0.025
		c0.111-0.359,0.236-0.818,0.385-1.251l1.188-3.518h1.152l-1.635,4.272c-0.78,2.057-1.313,3.096-2.057,3.754
		c-0.543,0.458-1.064,0.644-1.336,0.692l-0.271-0.903c0.271-0.088,0.631-0.261,0.951-0.532c0.298-0.236,0.656-0.657,0.916-1.215
		c0.05-0.112,0.088-0.198,0.088-0.26c0-0.063-0.025-0.148-0.088-0.284l-2.203-5.524H205.865z"/>
</g>
<rect x="-33.167" y="42.833" fill="none" width="101.333" height="76.333"/>
<rect x="-40.833" y="5.833" fill="none" width="101.333" height="76.333"/>
</svg>
