<?xml version="1.0" encoding="utf-8"?>
<!-- Generator: Adobe Illustrator 16.0.0, SVG Export Plug-In . SVG Version: 6.00 Build 0)  -->
<!DOCTYPE svg PUBLIC "-//W3C//DTD SVG 1.1//EN" "http://www.w3.org/Graphics/SVG/1.1/DTD/svg11.dtd">
<svg version="1.1" id="Capa_1" xmlns="http://www.w3.org/2000/svg" xmlns:xlink="http://www.w3.org/1999/xlink" x="0px" y="0px"
	 width="1920px" height="1080px" viewBox="0 0 1920 1080" enable-background="new 0 0 1920 1080" xml:space="preserve">
<g>
	
		<linearGradient id="SVGID_1_" gradientUnits="userSpaceOnUse" x1="-575.9795" y1="748.2734" x2="-409.951" y2="748.2734" gradientTransform="matrix(5.2747 0 0 5.2747 3536.8079 -3273.8525)">
		<stop  offset="0.0061" style="stop-color:#CDD534"/>
		<stop  offset="1" style="stop-color:#046636"/>
	</linearGradient>
	<path fill="url(#SVGID_1_)" d="M723.545,589.482c0,6.166-2.205,11.262-6.62,15.238c-4.409,3.967-9.278,5.944-14.574,5.944
		c-5.301,0-10.148-1.978-14.574-5.944c-4.42-3.977-6.619-9.072-6.619-15.238c0-6.198,2.199-11.272,6.619-15.255
		c4.426-3.972,9.273-5.95,14.574-5.95c5.291,0,10.159,1.979,14.574,5.95C721.334,578.21,723.545,583.284,723.545,589.482z
		 M716.925,777.9h-29.143V626.922h29.143V777.9z"/>
	
		<linearGradient id="SVGID_2_" gradientUnits="userSpaceOnUse" x1="-575.9751" y1="744.5918" x2="-409.9548" y2="744.5918" gradientTransform="matrix(5.2747 0 0 5.2747 3536.8079 -3273.8525)">
		<stop  offset="0.0061" style="stop-color:#CDD534"/>
		<stop  offset="1" style="stop-color:#046636"/>
	</linearGradient>
	<path fill="url(#SVGID_2_)" d="M784.257,529.43v248.466h-29.143V529.43C771.882,530.379,784.257,529.43,784.257,529.43z"/>
	
		<linearGradient id="SVGID_3_" gradientUnits="userSpaceOnUse" x1="-575.9756" y1="743.1602" x2="-409.9554" y2="743.1602" gradientTransform="matrix(5.2747 0 0 5.2747 3536.8079 -3273.8525)">
		<stop  offset="0.0061" style="stop-color:#CDD534"/>
		<stop  offset="1" style="stop-color:#046636"/>
	</linearGradient>
	<path fill="url(#SVGID_3_)" d="M839.398,514.333V777.9h-29.143V525.099C828.564,519.961,839.398,514.333,839.398,514.333z"/>
	
		<linearGradient id="SVGID_4_" gradientUnits="userSpaceOnUse" x1="-575.979" y1="737.9766" x2="-409.9478" y2="737.9766" gradientTransform="matrix(5.2747 0 0 5.2747 3536.8079 -3273.8525)">
		<stop  offset="0.0061" style="stop-color:#CDD534"/>
		<stop  offset="1" style="stop-color:#046636"/>
	</linearGradient>
	<path fill="url(#SVGID_4_)" d="M1071.323,618.783c0,15.598-2.722,30.023-8.16,43.258c-5.459,13.271-13.034,24.729-22.739,34.444
		c-9.727,9.727-21.273,17.307-34.666,22.744c-13.402,5.449-28.188,8.16-44.387,8.16c-15.903,0-30.54-2.711-43.933-8.16
		c-13.408-5.428-24.955-13.018-34.66-22.744c-9.716-9.716-17.296-21.188-22.75-34.444c-5.443-13.234-8.16-27.66-8.16-43.258
		c0-15.607,2.717-30.029,8.16-43.279c5.454-13.244,13.034-24.728,22.75-34.438c9.705-9.711,21.252-17.285,34.66-22.734
		c13.393-5.448,28.029-8.17,43.933-8.17c16.199,0,30.984,2.722,44.387,8.17c13.393,5.443,24.95,13.023,34.666,22.734
		c9.705,9.716,17.274,21.204,22.739,34.438C1068.606,588.744,1071.323,603.176,1071.323,618.783z M1039.543,618.783
		c0-11.483-1.856-22.223-5.522-32.239c-3.688-10.001-8.904-18.672-15.682-26.046c-6.778-7.358-14.938-13.177-24.507-17.444
		c-9.568-4.262-20.376-6.397-32.455-6.397c-12.074,0-22.882,2.136-32.445,6.397c-9.573,4.268-17.676,10.086-24.295,17.444
		c-6.631,7.374-11.768,16.045-15.45,26.046c-3.687,10.017-5.538,20.767-5.538,32.239s1.852,22.233,5.538,32.224
		c3.677,10.001,8.819,18.704,15.45,26.052c6.619,7.363,14.727,13.166,24.295,17.438c9.563,4.282,20.371,6.414,32.445,6.414
		c12.079,0,22.882-2.132,32.455-6.414c9.563-4.272,17.729-10.064,24.507-17.438c6.777-7.358,11.979-16.051,15.682-26.052
		C1037.691,641,1039.543,630.256,1039.543,618.783z"/>
	
		<linearGradient id="SVGID_5_" gradientUnits="userSpaceOnUse" x1="-575.9976" y1="742.291" x2="-409.9319" y2="742.291" gradientTransform="matrix(5.2747 0 0 5.2747 3536.8079 -3273.8525)">
		<stop  offset="0.0061" style="stop-color:#CDD534"/>
		<stop  offset="1" style="stop-color:#046636"/>
	</linearGradient>
	<path fill="url(#SVGID_5_)" d="M1003.495,677.913l-23.24-72.765h34.449l12.042,40.642
		C1016.529,670.181,1003.495,677.913,1003.495,677.913z"/>
	
		<linearGradient id="SVGID_6_" gradientUnits="userSpaceOnUse" x1="-575.9814" y1="739.8145" x2="-409.945" y2="739.8145" gradientTransform="matrix(5.2747 0 0 5.2747 3536.8079 -3273.8525)">
		<stop  offset="0.0061" style="stop-color:#CDD534"/>
		<stop  offset="1" style="stop-color:#046636"/>
	</linearGradient>
	<path fill="url(#SVGID_6_)" d="M1303.042,482.321l-94.603,295.568h-32.677l-54.757-169.561h-0.876l-54.746,169.561h-32.677
		l-16.536-53.538c0,0,11.557-4.277,24.675-15.37l8.656,30.05h0.865l55.21-167.789h30.019l55.189,167.789h0.886l83.251-259.986"/>
	<g>
		
			<linearGradient id="SVGID_7_" gradientUnits="userSpaceOnUse" x1="-575.9824" y1="728.7822" x2="-409.9386" y2="728.7822" gradientTransform="matrix(5.2747 0 0 5.2747 3536.8079 -3273.8525)">
			<stop  offset="0.0061" style="stop-color:#CDD534"/>
			<stop  offset="1" style="stop-color:#046636"/>
		</linearGradient>
		<path fill="url(#SVGID_7_)" d="M649.619,777.9h-32.65V362.647h32.65V777.9z"/>
		
			<linearGradient id="SVGID_8_" gradientUnits="userSpaceOnUse" x1="-575.981" y1="689.4189" x2="-409.9456" y2="689.4189" gradientTransform="matrix(5.2747 0 0 5.2747 3536.8079 -3273.8525)">
			<stop  offset="0.0061" style="stop-color:#CDD534"/>
			<stop  offset="1" style="stop-color:#046636"/>
		</linearGradient>
		<path fill="url(#SVGID_8_)" d="M922.386,362.647c0,22.339-3.845,42.884-11.572,61.646c-7.743,18.777-18.431,34.987-32.081,48.644
			c-13.656,13.666-29.792,24.348-48.411,32.075c-18.642,7.712-38.844,11.589-60.639,11.589c-21.8,0-42.003-3.877-60.628-11.589
			c-18.619-7.722-34.76-18.403-48.416-32.075c-13.656-13.651-24.354-29.866-32.081-48.644
			c-7.723-18.763-11.594-39.308-11.594-61.646c0-22.354,3.866-42.904,11.594-61.677c7.722-18.752,18.419-34.961,32.081-48.628
			c13.656-13.651,29.791-24.327,48.416-32.06c18.625-7.717,38.828-11.594,60.628-11.594c21.795,0,41.997,3.876,60.639,11.594
			c18.619,7.732,34.755,18.409,48.411,32.06c13.646,13.667,24.338,29.876,32.081,48.628
			C918.541,319.743,922.386,340.299,922.386,362.647z M890.115,362.647c0-16.815-2.764-32.908-8.281-48.211
			c-5.528-15.323-13.451-28.773-23.8-40.351c-10.344-11.604-22.955-20.825-37.867-27.724c-14.901-6.884-31.728-10.365-50.489-10.365
			c-18.763,0-35.589,3.481-50.479,10.365c-14.911,6.899-27.534,16.12-37.878,27.724c-10.349,11.578-18.271,25.034-23.789,40.351
			c-5.527,15.303-8.281,31.396-8.281,48.211c0,16.827,2.754,32.894,8.281,48.206c5.518,15.308,13.44,28.764,23.789,40.352
			c10.344,11.594,22.967,20.846,37.878,27.729c14.891,6.889,31.722,10.349,50.479,10.349c18.757,0,35.588-3.46,50.489-10.349
			c14.912-6.884,27.523-16.136,37.867-27.729c10.349-11.588,18.271-25.044,23.8-40.352
			C887.356,395.541,890.115,379.475,890.115,362.647z"/>
		<line fill="none" x1="649.619" y1="460.516" x2="649.619" y2="516.596"/>
	</g>
	<line fill="none" x1="616.964" y1="339.956" x2="616.964" y2="760.769"/>
</g>
<g>
	<path fill="#FFFFFF" d="M843.978,861.689c-2.021,1.045-6.267,2.089-11.62,2.089c-12.417,0-21.69-7.827-21.69-22.333
		c0-13.846,9.337-23.135,22.998-23.135c5.412,0,8.94,1.191,10.444,1.957l-1.44,4.652c-2.083-1.045-5.153-1.831-8.809-1.831
		c-10.328,0-17.185,6.599-17.185,18.156c0,10.839,6.202,17.696,16.853,17.696c3.518,0,7.058-0.717,9.341-1.825L843.978,861.689z"/>
	<path fill="#FFFFFF" d="M885.384,847c0,11.683-8.16,16.778-15.734,16.778c-8.492,0-15.165-6.267-15.165-16.262
		c0-10.513,7-16.721,15.682-16.721C879.249,830.796,885.384,837.395,885.384,847z M860.36,847.316
		c0,6.926,3.925,12.158,9.553,12.158c5.48,0,9.6-5.159,9.6-12.28c0-5.358-2.689-12.079-9.479-12.079
		C863.314,835.11,860.36,841.382,860.36,847.316z"/>
	<path fill="#FFFFFF" d="M899.161,840c0-3.323-0.126-5.934-0.258-8.556h5.026l0.264,5.164h0.2c1.763-3.007,4.7-5.818,9.996-5.818
		c4.241,0,7.511,2.606,8.888,6.335h0.121c0.981-1.835,2.279-3.138,3.593-4.114c1.894-1.445,3.924-2.221,6.925-2.221
		c4.258,0,10.455,2.748,10.455,13.726v18.546h-5.617v-17.829c0-6.15-2.284-9.742-6.857-9.742c-3.334,0-5.813,2.427-6.857,5.164
		c-0.264,0.839-0.459,1.83-0.459,2.885v19.522h-5.617v-18.937c0-5.043-2.211-8.635-6.594-8.635c-3.529,0-6.208,2.875-7.126,5.755
		c-0.322,0.786-0.464,1.83-0.464,2.806v19.011h-5.612V840H899.161z"/>
	<path fill="#FFFFFF" d="M960.164,841.768c0-4.052-0.143-7.316-0.27-10.323h5.096l0.332,5.417h0.121
		c2.289-3.845,6.082-6.065,11.24-6.065c7.707,0,13.467,6.472,13.467,16.003c0,11.367-6.994,16.979-14.442,16.979
		c-4.178,0-7.838-1.825-9.737-4.958h-0.121V876h-5.686V841.768z M965.85,850.201c0,0.844,0.063,1.636,0.253,2.348
		c1.056,3.977,4.511,6.72,8.624,6.72c6.071,0,9.601-4.953,9.601-12.206c0-6.266-3.323-11.693-9.399-11.693
		c-3.925,0-7.644,2.742-8.683,7.058c-0.206,0.717-0.39,1.566-0.39,2.284v5.49H965.85z"/>
	<path fill="#FFFFFF" d="M1026.056,855.486c0,2.748,0.132,5.417,0.459,7.58h-5.153l-0.459-3.982h-0.195
		c-1.772,2.479-5.164,4.7-9.664,4.7c-6.419,0-9.684-4.505-9.684-9.078c0-7.638,6.799-11.826,19.016-11.758v-0.664
		c0-2.532-0.713-7.316-7.18-7.248c-3.006,0-6.087,0.85-8.297,2.358l-1.313-3.851c2.616-1.63,6.472-2.748,10.454-2.748
		c9.674,0,12.011,6.599,12.011,12.859v11.831H1026.056z M1020.517,846.926c-6.271-0.127-13.402,0.981-13.402,7.126
		c0,3.787,2.489,5.485,5.364,5.485c4.188,0,6.857-2.616,7.785-5.295c0.185-0.654,0.259-1.304,0.259-1.836v-5.48H1020.517z"/>
	<path fill="#FFFFFF" d="M1041.869,840c0-3.323-0.068-5.934-0.264-8.556h5.09l0.332,5.232h0.121
		c1.578-2.948,5.244-5.881,10.455-5.881c4.378,0,11.166,2.605,11.166,13.45v18.815h-5.738v-18.22c0-5.095-1.898-9.347-7.321-9.347
		c-3.724,0-6.667,2.675-7.712,5.887c-0.258,0.712-0.391,1.693-0.391,2.675v19.01h-5.744V840H1041.869z"/>
	<path fill="#FFFFFF" d="M1085.881,831.444l6.863,18.678c0.78,2.1,1.566,4.579,2.083,6.478h0.132
		c0.586-1.894,1.245-4.314,2.031-6.599l6.266-18.557h6.077l-8.624,22.533c-4.115,10.851-6.926,16.331-10.851,19.802
		c-2.864,2.416-5.612,3.396-7.047,3.65l-1.43-4.764c1.43-0.464,3.328-1.376,5.017-2.806c1.571-1.245,3.46-3.466,4.831-6.409
		c0.265-0.591,0.465-1.044,0.465-1.371c0-0.332-0.132-0.78-0.465-1.498l-11.62-29.138H1085.881z"/>
</g>
<rect x="-174.947" y="354.504" fill="none" width="534.504" height="402.636"/>
<rect x="-215.383" y="159.339" fill="none" width="534.504" height="402.636"/>
</svg>
