<?xml version="1.0" encoding="utf-8"?>
<!-- Generator: Adobe Illustrator 16.0.0, SVG Export Plug-In . SVG Version: 6.00 Build 0)  -->
<!DOCTYPE svg PUBLIC "-//W3C//DTD SVG 1.1//EN" "http://www.w3.org/Graphics/SVG/1.1/DTD/svg11.dtd">
<svg version="1.1" id="Capa_1" xmlns="http://www.w3.org/2000/svg" xmlns:xlink="http://www.w3.org/1999/xlink" x="0px" y="0px"
	 width="1920px" height="1080px" viewBox="0 0 1920 1080" enable-background="new 0 0 1920 1080" xml:space="preserve">
<g>
	<g>
		
			<linearGradient id="SVGID_1_" gradientUnits="userSpaceOnUse" x1="-575.98" y1="748.2734" x2="-409.9515" y2="748.2734" gradientTransform="matrix(5.2747 0 0 5.2747 3536.8079 -3273.8525)">
			<stop  offset="0" style="stop-color:#E30E6F"/>
			<stop  offset="1" style="stop-color:#622280"/>
		</linearGradient>
		<path fill="url(#SVGID_1_)" d="M723.545,589.482c0,6.166-2.205,11.262-6.62,15.238c-4.409,3.967-9.278,5.944-14.574,5.944
			c-5.301,0-10.148-1.978-14.574-5.944c-4.42-3.977-6.619-9.072-6.619-15.238c0-6.198,2.199-11.272,6.619-15.255
			c4.426-3.972,9.273-5.95,14.574-5.95c5.291,0,10.159,1.979,14.574,5.95C721.334,578.21,723.545,583.284,723.545,589.482z
			 M716.925,777.9h-29.143V626.922h29.143V777.9z"/>
		
			<linearGradient id="SVGID_2_" gradientUnits="userSpaceOnUse" x1="-575.9756" y1="744.5918" x2="-409.9554" y2="744.5918" gradientTransform="matrix(5.2747 0 0 5.2747 3536.8079 -3273.8525)">
			<stop  offset="0" style="stop-color:#E30E6F"/>
			<stop  offset="1" style="stop-color:#622280"/>
		</linearGradient>
		<path fill="url(#SVGID_2_)" d="M784.252,529.43v248.466h-29.144V529.43C771.882,530.379,784.252,529.43,784.252,529.43z"/>
		
			<linearGradient id="SVGID_3_" gradientUnits="userSpaceOnUse" x1="-575.9761" y1="743.1602" x2="-409.9558" y2="743.1602" gradientTransform="matrix(5.2747 0 0 5.2747 3536.8079 -3273.8525)">
			<stop  offset="0" style="stop-color:#E30E6F"/>
			<stop  offset="1" style="stop-color:#622280"/>
		</linearGradient>
		<path fill="url(#SVGID_3_)" d="M839.398,514.333V777.9h-29.143V525.099C828.559,519.961,839.398,514.333,839.398,514.333z"/>
		
			<linearGradient id="SVGID_4_" gradientUnits="userSpaceOnUse" x1="-575.98" y1="737.9766" x2="-409.9468" y2="737.9766" gradientTransform="matrix(5.2747 0 0 5.2747 3536.8079 -3273.8525)">
			<stop  offset="0" style="stop-color:#E30E6F"/>
			<stop  offset="1" style="stop-color:#622280"/>
		</linearGradient>
		<path fill="url(#SVGID_4_)" d="M1071.323,618.783c0,15.598-2.728,30.023-8.16,43.258c-5.459,13.271-13.034,24.729-22.745,34.444
			c-9.721,9.727-21.272,17.307-34.66,22.744c-13.402,5.449-28.193,8.16-44.387,8.16c-15.902,0-30.54-2.711-43.933-8.16
			c-13.408-5.428-24.955-13.018-34.66-22.744c-9.716-9.716-17.296-21.188-22.75-34.444c-5.443-13.234-8.16-27.66-8.16-43.258
			c0-15.607,2.717-30.029,8.16-43.279c5.454-13.244,13.034-24.728,22.75-34.438c9.705-9.711,21.252-17.285,34.66-22.734
			c13.393-5.448,28.03-8.17,43.933-8.17c16.193,0,30.984,2.722,44.387,8.17c13.388,5.443,24.944,13.023,34.66,22.734
			c9.711,9.716,17.28,21.204,22.745,34.438C1068.606,588.744,1071.323,603.176,1071.323,618.783z M1039.543,618.783
			c0-11.483-1.856-22.223-5.528-32.239c-3.687-10.001-8.898-18.672-15.676-26.046c-6.778-7.358-14.938-13.177-24.507-17.444
			c-9.568-4.262-20.381-6.397-32.455-6.397s-22.882,2.136-32.445,6.397c-9.573,4.268-17.676,10.086-24.295,17.444
			c-6.631,7.374-11.768,16.045-15.45,26.046c-3.687,10.017-5.538,20.767-5.538,32.239s1.852,22.233,5.538,32.224
			c3.677,10.001,8.819,18.704,15.45,26.052c6.619,7.363,14.727,13.166,24.295,17.438c9.563,4.282,20.371,6.414,32.445,6.414
			s22.887-2.132,32.455-6.414c9.563-4.272,17.729-10.064,24.507-17.438c6.777-7.358,11.979-16.051,15.676-26.052
			C1037.691,641,1039.543,630.256,1039.543,618.783z"/>
		
			<linearGradient id="SVGID_5_" gradientUnits="userSpaceOnUse" x1="-575.9976" y1="742.291" x2="-409.9319" y2="742.291" gradientTransform="matrix(5.2747 0 0 5.2747 3536.8079 -3273.8525)">
			<stop  offset="0" style="stop-color:#E30E6F"/>
			<stop  offset="1" style="stop-color:#622280"/>
		</linearGradient>
		<path fill="url(#SVGID_5_)" d="M1003.495,677.913l-23.24-72.765h34.444l12.047,40.642
			C1016.523,670.181,1003.495,677.913,1003.495,677.913z"/>
		
			<linearGradient id="SVGID_6_" gradientUnits="userSpaceOnUse" x1="-575.98" y1="739.8145" x2="-409.9467" y2="739.8145" gradientTransform="matrix(5.2747 0 0 5.2747 3536.8079 -3273.8525)">
			<stop  offset="0" style="stop-color:#E30E6F"/>
			<stop  offset="1" style="stop-color:#622280"/>
		</linearGradient>
		<path fill="url(#SVGID_6_)" d="M1303.036,482.321l-94.597,295.568h-32.677l-54.757-169.561h-0.876l-54.746,169.561h-32.683
			l-16.53-53.538c0,0,11.552-4.277,24.67-15.37l8.661,30.05h0.859l55.216-167.789h30.019l55.189,167.789h0.886l83.246-259.986"/>
		<g>
			
				<linearGradient id="SVGID_7_" gradientUnits="userSpaceOnUse" x1="-575.9805" y1="728.7822" x2="-409.9497" y2="728.7822" gradientTransform="matrix(5.2747 0 0 5.2747 3536.8079 -3273.8525)">
				<stop  offset="0" style="stop-color:#E30E6F"/>
				<stop  offset="1" style="stop-color:#622280"/>
			</linearGradient>
			<path fill="url(#SVGID_7_)" d="M649.614,777.9h-32.65V362.647h32.65V777.9z"/>
			
				<linearGradient id="SVGID_8_" gradientUnits="userSpaceOnUse" x1="-575.9819" y1="689.4189" x2="-409.9451" y2="689.4189" gradientTransform="matrix(5.2747 0 0 5.2747 3536.8079 -3273.8525)">
				<stop  offset="0" style="stop-color:#E30E6F"/>
				<stop  offset="1" style="stop-color:#622280"/>
			</linearGradient>
			<path fill="url(#SVGID_8_)" d="M922.381,362.647c0,22.339-3.846,42.884-11.573,61.646c-7.743,18.777-18.43,34.987-32.081,48.644
				c-13.656,13.666-29.791,24.348-48.411,32.075c-18.641,7.712-38.843,11.589-60.638,11.589c-21.801,0-42.003-3.877-60.628-11.589
				c-18.62-7.722-34.761-18.403-48.417-32.075c-13.656-13.651-24.354-29.866-32.081-48.644
				c-7.722-18.763-11.594-39.308-11.594-61.646c0-22.354,3.866-42.904,11.594-61.677c7.723-18.752,18.42-34.961,32.081-48.628
				c13.656-13.651,29.792-24.327,48.417-32.06c18.625-7.717,38.827-11.594,60.628-11.594c21.795,0,41.997,3.876,60.638,11.594
				c18.62,7.732,34.755,18.409,48.411,32.06c13.646,13.667,24.338,29.876,32.081,48.628
				C918.535,319.743,922.381,340.299,922.381,362.647z M890.115,362.647c0-16.815-2.764-32.908-8.281-48.211
				c-5.528-15.323-13.451-28.773-23.8-40.351c-10.344-11.604-22.955-20.825-37.867-27.724
				c-14.901-6.884-31.728-10.365-50.489-10.365c-18.763,0-35.589,3.481-50.479,10.365c-14.911,6.899-27.534,16.12-37.878,27.724
				c-10.349,11.578-18.271,25.034-23.789,40.351c-5.527,15.303-8.281,31.396-8.281,48.211c0,16.827,2.754,32.894,8.281,48.206
				c5.518,15.308,13.44,28.764,23.789,40.352c10.344,11.594,22.967,20.846,37.878,27.729c14.891,6.889,31.722,10.349,50.479,10.349
				c18.757,0,35.588-3.46,50.489-10.349c14.912-6.884,27.523-16.136,37.867-27.729c10.349-11.588,18.271-25.044,23.8-40.352
				C887.352,395.541,890.115,379.475,890.115,362.647z"/>
			<line fill="none" x1="649.614" y1="460.516" x2="649.614" y2="516.596"/>
		</g>
		<line fill="none" x1="616.964" y1="339.956" x2="616.964" y2="760.769"/>
	</g>
</g>
<g>
	<g>
		<path fill="#FFFFFF" d="M761.206,827.431h27.117v4.747h-22.006v13.524h20.545v4.747h-20.545v15.35h23.098v4.752h-28.209V827.431z"
			/>
		<path fill="#FFFFFF" d="M832.383,865.52h-0.121c-0.896,1.63-2.305,2.985-4.235,4.108c-1.936,1.113-4.178,1.678-6.735,1.678
			c-1.989,0-3.867-0.375-5.612-1.14c-1.746-0.754-3.255-1.799-4.536-3.139c-1.282-1.34-2.284-2.927-3.018-4.747
			c-0.729-1.841-1.092-3.818-1.092-5.976c0-2.152,0.363-4.142,1.092-5.972c0.738-1.841,1.756-3.413,3.049-4.752
			c1.303-1.34,2.875-2.379,4.727-3.134c1.851-0.765,3.887-1.134,6.123-1.134c2.073,0,3.973,0.427,5.697,1.282
			c1.735,0.849,3.244,2.046,4.547,3.597h0.121v-21.689h4.752v46.059h-4.752L832.383,865.52L832.383,865.52z M832.383,856.314
			c0-1.498-0.236-2.896-0.701-4.172c-0.469-1.282-1.149-2.405-2.047-3.36c-0.896-0.954-1.962-1.703-3.196-2.252
			c-1.245-0.549-2.632-0.817-4.178-0.817c-1.54,0-2.933,0.274-4.172,0.817c-1.245,0.549-2.311,1.298-3.196,2.252
			c-0.896,0.955-1.583,2.078-2.047,3.36c-0.459,1.276-0.696,2.674-0.696,4.172s0.237,2.901,0.696,4.178
			c0.464,1.282,1.15,2.395,2.047,3.35c0.886,0.96,1.951,1.704,3.196,2.263c1.234,0.549,2.632,0.828,4.172,0.828
			c1.546,0,2.933-0.29,4.178-0.828c1.234-0.549,2.306-1.303,3.196-2.263c0.892-0.955,1.572-2.067,2.047-3.35
			C832.146,859.216,832.383,857.813,832.383,856.314z"/>
		<path fill="#FFFFFF" d="M882.957,863.811c0,1.303,0.037,2.526,0.121,3.66c0.085,1.134,0.122,2.168,0.122,3.102h-4.505
			c0-0.77-0.021-1.545-0.059-2.311c-0.047-0.77-0.068-1.566-0.068-2.373h-0.121c-0.321,0.69-0.78,1.36-1.366,2.01
			c-0.585,0.643-1.292,1.218-2.099,1.735c-0.823,0.511-1.726,0.917-2.748,1.213c-1.019,0.316-2.11,0.464-3.292,0.464
			c-1.867,0-3.471-0.301-4.837-0.865c-1.366-0.554-2.49-1.35-3.387-2.368c-0.896-1.007-1.556-2.247-1.978-3.687
			c-0.428-1.44-0.644-3.007-0.644-4.727v-17.597h4.752v17.111c0,2.395,0.528,4.288,1.588,5.671c1.055,1.376,2.706,2.078,4.932,2.078
			c1.546,0,2.886-0.27,3.999-0.786c1.112-0.533,2.025-1.282,2.737-2.273c0.717-0.971,1.234-2.12,1.593-3.46
			c0.338-1.34,0.512-2.822,0.512-4.452v-13.889h4.753L882.957,863.811L882.957,863.811z"/>
		<path fill="#FFFFFF" d="M924.453,849.178c-1.018-1.213-2.109-2.099-3.291-2.647c-1.176-0.549-2.479-0.817-3.893-0.817
			c-1.582,0-2.991,0.274-4.215,0.817c-1.208,0.549-2.215,1.308-3.006,2.294c-0.792,0.977-1.388,2.089-1.794,3.376
			c-0.417,1.287-0.612,2.669-0.612,4.114c0,1.456,0.232,2.838,0.707,4.109c0.454,1.281,1.113,2.416,1.947,3.387
			c0.828,0.991,1.84,1.735,3.017,2.294c1.177,0.549,2.5,0.828,3.962,0.828c3.122,0,5.543-1.187,7.242-3.544l3.539,3.349
			c-1.377,1.593-3.012,2.748-4.879,3.471c-1.867,0.744-3.84,1.103-5.902,1.103c-2.2,0-4.215-0.358-6.04-1.103
			c-1.83-0.728-3.376-1.762-4.657-3.102c-1.282-1.345-2.273-2.927-2.991-4.747c-0.707-1.835-1.065-3.845-1.065-6.045
			c0-2.146,0.358-4.135,1.065-5.971c0.718-1.836,1.72-3.407,3.018-4.747c1.297-1.34,2.858-2.39,4.657-3.139
			c1.81-0.76,3.813-1.134,6.008-1.134c2.11,0,4.114,0.369,5.997,1.097c1.884,0.733,3.545,1.867,4.97,3.407L924.453,849.178z"/>
		<path fill="#FFFFFF" d="M945.357,845.713c1.461-1.504,3.207-2.617,5.217-3.323c2.01-0.712,4.046-1.065,6.119-1.065
			c4.225,0,7.273,0.991,9.135,2.99c1.867,1.979,2.796,5.006,2.796,9.072v12.254c0,0.802,0.048,1.65,0.132,2.526
			c0.079,0.881,0.169,1.667,0.307,2.405h-4.574c-0.163-0.648-0.258-1.377-0.279-2.157c-0.016-0.791-0.037-1.482-0.037-2.094h-0.11
			c-0.949,1.455-2.194,2.658-3.745,3.592c-1.566,0.938-3.449,1.413-5.639,1.413c-1.461,0-2.838-0.194-4.109-0.548
			c-1.281-0.375-2.405-0.907-3.35-1.625c-0.965-0.712-1.725-1.599-2.294-2.658c-0.569-1.05-0.86-2.273-0.86-3.64
			c0-2.368,0.617-4.209,1.831-5.549c1.224-1.34,2.737-2.337,4.547-2.985c1.804-0.654,3.755-1.05,5.85-1.214
			c2.094-0.158,4.009-0.248,5.76-0.248h1.825v-0.844c0-2.083-0.623-3.64-1.867-4.705c-1.24-1.055-2.97-1.582-5.206-1.582
			c-1.546,0-3.055,0.253-4.547,0.765c-1.482,0.517-2.78,1.298-3.925,2.348L945.357,845.713z M959.125,856.853
			c-3.049,0-5.46,0.433-7.253,1.287c-1.783,0.844-2.68,2.258-2.68,4.204c0,1.793,0.606,3.06,1.799,3.813
			c1.202,0.755,2.689,1.124,4.483,1.124c1.377,0,2.584-0.228,3.623-0.696c1.039-0.475,1.904-1.087,2.596-1.862
			c0.681-0.77,1.213-1.678,1.582-2.722c0.359-1.028,0.564-2.142,0.607-3.323v-1.83h-4.758V856.853z"/>
		<path fill="#FFFFFF" d="M1005.146,846.076h-8.424v14.258c0,0.938,0.031,1.793,0.068,2.579c0.043,0.791,0.206,1.493,0.496,2.084
			c0.285,0.58,0.712,1.055,1.266,1.408c0.575,0.338,1.398,0.527,2.453,0.527c0.681,0,1.397-0.095,2.126-0.248
			c0.738-0.174,1.419-0.411,2.078-0.743l0.174,4.33c-0.802,0.364-1.709,0.623-2.717,0.786c-0.991,0.158-1.931,0.248-2.827,0.248
			c-1.709,0-3.069-0.227-4.077-0.67c-1.018-0.454-1.804-1.081-2.379-1.894c-0.564-0.802-0.949-1.814-1.124-3.007
			c-0.184-1.208-0.289-2.532-0.289-3.998v-15.661h-6.203v-4.019h6.203v-8.118h4.752v8.118h8.424V846.076z"/>
		<path fill="#FFFFFF" d="M1022.553,830.901c0-0.939,0.332-1.752,1.002-2.442c0.67-0.691,1.493-1.028,2.479-1.028
			c0.976,0,1.804,0.337,2.464,1.028c0.67,0.69,1.002,1.503,1.002,2.442c0,1.013-0.322,1.852-0.971,2.5
			c-0.654,0.648-1.493,0.976-2.511,0.976c-1.019,0-1.852-0.327-2.5-0.976C1022.869,832.753,1022.553,831.925,1022.553,830.901z
			 M1023.655,842.063h4.753v28.51h-4.753V842.063z"/>
		<path fill="#FFFFFF" d="M1048.404,856.314c0-2.226,0.385-4.267,1.166-6.092c0.77-1.825,1.819-3.397,3.17-4.727
			c1.34-1.308,2.943-2.331,4.811-3.069c1.867-0.729,3.898-1.098,6.092-1.098c2.194,0,4.226,0.369,6.088,1.098
			c1.867,0.738,3.476,1.762,4.811,3.069c1.345,1.335,2.395,2.901,3.175,4.727c0.771,1.83,1.171,3.866,1.171,6.092
			c0,2.242-0.396,4.263-1.171,6.093c-0.77,1.83-1.83,3.407-3.175,4.726c-1.335,1.319-2.949,2.343-4.811,3.07
			c-1.867,0.744-3.894,1.103-6.088,1.103c-2.193,0-4.225-0.358-6.092-1.103c-1.867-0.728-3.471-1.751-4.811-3.07
			c-1.351-1.318-2.395-2.9-3.17-4.726C1048.789,860.571,1048.404,858.557,1048.404,856.314z M1053.516,856.314
			c0,1.498,0.237,2.901,0.718,4.178c0.459,1.282,1.149,2.395,2.036,3.35c0.896,0.96,1.962,1.704,3.201,2.263
			c1.229,0.549,2.627,0.828,4.172,0.828c1.535,0,2.934-0.29,4.173-0.828c1.234-0.549,2.311-1.303,3.196-2.263
			c0.892-0.955,1.577-2.067,2.047-3.35c0.464-1.276,0.691-2.68,0.691-4.178s-0.228-2.896-0.691-4.172
			c-0.47-1.282-1.15-2.405-2.047-3.36c-0.896-0.954-1.962-1.703-3.196-2.252c-1.239-0.549-2.638-0.817-4.173-0.817
			c-1.545,0-2.942,0.274-4.172,0.817c-1.239,0.549-2.311,1.298-3.201,2.252c-0.887,0.955-1.577,2.078-2.036,3.36
			C1053.748,853.419,1053.516,854.816,1053.516,856.314z"/>
		<path fill="#FFFFFF" d="M1098.43,848.824c0-1.303-0.042-2.526-0.121-3.66s-0.116-2.163-0.116-3.102h4.516
			c0,0.77,0.021,1.535,0.053,2.311c0.042,0.77,0.073,1.562,0.073,2.373h0.111c0.332-0.69,0.775-1.36,1.371-2.01
			c0.586-0.648,1.298-1.224,2.104-1.74c0.797-0.506,1.726-0.918,2.737-1.219c1.019-0.301,2.11-0.453,3.297-0.453
			c1.867,0,3.481,0.284,4.848,0.849c1.361,0.575,2.479,1.366,3.376,2.369c0.896,1.018,1.556,2.252,1.994,3.687
			c0.422,1.44,0.628,3.018,0.628,4.727v17.606h-4.742v-17.116c0-2.395-0.538-4.288-1.594-5.67c-1.055-1.388-2.7-2.073-4.937-2.073
			c-1.551,0-2.88,0.264-3.993,0.78c-1.123,0.538-2.03,1.287-2.748,2.263c-0.707,0.977-1.239,2.126-1.588,3.477
			c-0.332,1.345-0.521,2.822-0.521,4.446v13.894h-4.748V848.824L1098.43,848.824z"/>
	</g>
</g>
</svg>
