<?xml version="1.0" encoding="utf-8"?>
<!-- Generator: Adobe Illustrator 16.0.0, SVG Export Plug-In . SVG Version: 6.00 Build 0)  -->
<!DOCTYPE svg PUBLIC "-//W3C//DTD SVG 1.1//EN" "http://www.w3.org/Graphics/SVG/1.1/DTD/svg11.dtd">
<svg version="1.1" id="Capa_1" xmlns="http://www.w3.org/2000/svg" xmlns:xlink="http://www.w3.org/1999/xlink" x="0px" y="0px"
	 width="1920px" height="1080px" viewBox="0 0 1920 1080" enable-background="new 0 0 1920 1080" xml:space="preserve">
<g>
	<path fill="#FFFFFF" d="M723.545,636.18c0,6.171-2.205,11.267-6.615,15.243c-4.409,3.967-9.283,5.945-14.579,5.945
		c-5.306,0-10.148-1.979-14.579-5.945c-4.426-3.977-6.62-9.072-6.62-15.243c0-6.193,2.194-11.272,6.62-15.255
		c4.431-3.972,9.272-5.95,14.579-5.95c5.296,0,10.159,1.979,14.579,5.95C721.34,624.923,723.545,629.992,723.545,636.18z
		 M716.93,824.604h-29.143V673.625h29.143V824.604z"/>
	<path fill="#FFFFFF" d="M784.257,576.143v248.461h-29.138V576.143C771.882,577.081,784.257,576.143,784.257,576.143z"/>
	<path fill="#FFFFFF" d="M839.404,561.035v263.568h-29.138V571.802C828.564,566.674,839.404,561.035,839.404,561.035z"/>
	<path fill="#FFFFFF" d="M1071.323,665.485c0,15.598-2.728,30.024-8.165,43.259c-5.454,13.271-13.034,24.728-22.74,34.443
		c-9.727,9.727-21.272,17.301-34.665,22.745c-13.403,5.448-28.188,8.159-44.382,8.159c-15.908,0-30.54-2.711-43.933-8.159
		c-13.409-5.423-24.95-13.019-34.655-22.745c-9.716-9.716-17.296-21.193-22.75-34.443c-5.443-13.234-8.16-27.661-8.16-43.259
		c0-15.607,2.717-30.023,8.16-43.278c5.449-13.245,13.039-24.729,22.75-34.434c9.705-9.717,21.246-17.285,34.655-22.739
		c13.393-5.449,28.024-8.182,43.933-8.182c16.193,0,30.979,2.732,44.382,8.182c13.393,5.438,24.949,13.022,34.665,22.739
		c9.706,9.716,17.27,21.204,22.74,34.434C1068.606,635.451,1071.323,649.878,1071.323,665.485z M1039.543,665.485
		c0-11.482-1.856-22.222-5.522-32.238c-3.688-10.001-8.904-18.668-15.682-26.047c-6.778-7.363-14.938-13.177-24.507-17.443
		c-9.568-4.268-20.376-6.404-32.45-6.404c-12.073,0-22.882,2.137-32.439,6.404c-9.573,4.267-17.681,10.08-24.295,17.443
		c-6.625,7.374-11.758,16.046-15.444,26.047c-3.688,10.017-5.544,20.771-5.544,32.238c0,11.468,1.856,22.233,5.544,32.219
		c3.671,10.001,8.819,18.709,15.444,26.052c6.625,7.363,14.731,13.166,24.295,17.443c9.563,4.283,20.366,6.408,32.439,6.408
		c12.074,0,22.882-2.125,32.45-6.408c9.563-4.277,17.729-10.064,24.507-17.443c6.772-7.358,11.979-16.051,15.682-26.052
		C1037.691,687.708,1039.543,676.964,1039.543,665.485z"/>
	<path fill="#FFFFFF" d="M1003.495,724.621l-23.24-72.766h34.449l12.042,40.643C1016.529,716.883,1003.495,724.621,1003.495,724.621
		z"/>
	<path fill="#FFFFFF" d="M1303.042,529.028l-94.603,295.564h-32.672l-54.762-169.562h-0.876l-54.746,169.562h-32.672l-16.541-53.533
		c0,0,11.557-4.283,24.681-15.371l8.655,30.045h0.865l55.21-167.789h30.019l55.189,167.789h0.887l83.251-259.98"/>
	<g>
		<path fill="#FFFFFF" d="M649.614,824.604h-32.646V409.351h32.646V824.604z"/>
		<path fill="#FFFFFF" d="M922.386,409.351c0,22.338-3.845,42.883-11.578,61.65c-7.737,18.778-18.425,34.987-32.081,48.644
			c-13.65,13.667-29.78,24.349-48.411,32.081c-18.636,7.706-38.838,11.583-60.638,11.583c-21.801,0-42.003-3.877-60.628-11.583
			c-18.614-7.728-34.761-18.408-48.411-32.081c-13.662-13.65-24.354-29.865-32.081-48.644c-7.728-18.768-11.6-39.307-11.6-61.65
			c0-22.35,3.872-42.905,11.6-61.673c7.717-18.757,18.414-34.96,32.081-48.632c13.65-13.651,29.781-24.322,48.411-32.06
			c18.625-7.717,38.827-11.588,60.628-11.588c21.8,0,42.002,3.872,60.638,11.588c18.62,7.738,34.761,18.409,48.411,32.06
			c13.651,13.672,24.344,29.875,32.081,48.632C918.541,366.451,922.386,387.007,922.386,409.351z M890.12,409.351
			c0-16.816-2.759-32.904-8.281-48.211c-5.533-15.323-13.456-28.774-23.8-40.352c-10.344-11.6-22.966-20.82-37.872-27.725
			c-14.896-6.883-31.732-10.365-50.489-10.365c-18.758,0-35.584,3.481-50.475,10.365c-14.911,6.905-27.533,16.125-37.877,27.725
			c-10.354,11.577-18.277,25.033-23.789,40.352c-5.533,15.302-8.281,31.395-8.281,48.211c0,16.826,2.748,32.893,8.281,48.211
			c5.512,15.302,13.435,28.758,23.789,40.346c10.344,11.595,22.966,20.846,37.877,27.729c14.891,6.895,31.728,10.35,50.475,10.35
			c18.762,0,35.594-3.455,50.489-10.35c14.912-6.884,27.528-16.135,37.872-27.729c10.344-11.588,18.267-25.044,23.8-40.346
			C887.361,442.249,890.12,426.182,890.12,409.351z"/>
		<line fill="#FFFFFF" x1="649.614" y1="507.223" x2="649.614" y2="563.304"/>
	</g>
	<line fill="#FFFFFF" x1="616.969" y1="386.664" x2="616.969" y2="807.471"/>
</g>
</svg>
