<?xml version="1.0" encoding="utf-8"?>
<!-- Generator: Adobe Illustrator 16.0.0, SVG Export Plug-In . SVG Version: 6.00 Build 0)  -->
<!DOCTYPE svg PUBLIC "-//W3C//DTD SVG 1.1//EN" "http://www.w3.org/Graphics/SVG/1.1/DTD/svg11.dtd">
<svg version="1.1" id="Capa_1" xmlns="http://www.w3.org/2000/svg" xmlns:xlink="http://www.w3.org/1999/xlink" x="0px" y="0px"
	  viewBox="0 0 364 156" enable-background="new 0 0 364 156" xml:space="preserve">
<g>
	<path fill="#3D3D3F" d="M137.172,96.234c0,1.17-0.418,2.136-1.254,2.89c-0.836,0.752-1.76,1.127-2.764,1.127
		c-1.006,0-1.924-0.375-2.764-1.127c-0.839-0.754-1.255-1.72-1.255-2.89c0-1.174,0.416-2.137,1.255-2.892
		c0.84-0.753,1.758-1.128,2.764-1.128c1.004,0,1.926,0.375,2.764,1.128C136.754,94.1,137.172,95.061,137.172,96.234z
		 M135.918,131.956h-5.525v-28.623h5.525V131.956z"/>
	<path fill="#3D3D3F" d="M148.682,84.852v47.104h-5.524V84.852C146.336,85.03,148.682,84.852,148.682,84.852z"/>
	<path fill="#3D3D3F" d="M159.137,81.988v49.968h-5.524V84.029C157.082,83.057,159.137,81.988,159.137,81.988z"/>
	<path fill="#3D3D3F" d="M203.105,101.79c0,2.957-0.517,5.692-1.548,8.201c-1.034,2.516-2.471,4.688-4.311,6.53
		c-1.844,1.844-4.033,3.28-6.572,4.312c-2.541,1.033-5.344,1.547-8.414,1.547c-3.016,0-5.79-0.514-8.329-1.547
		c-2.542-1.028-4.73-2.468-6.57-4.312c-1.842-1.842-3.279-4.018-4.313-6.53c-1.032-2.509-1.547-5.244-1.547-8.201
		c0-2.959,0.515-5.692,1.547-8.205c1.033-2.511,2.472-4.688,4.313-6.528c1.84-1.842,4.028-3.277,6.57-4.311
		c2.539-1.033,5.313-1.551,8.329-1.551c3.07,0,5.873,0.518,8.414,1.551c2.539,1.031,4.73,2.469,6.572,4.311
		c1.84,1.842,3.274,4.02,4.311,6.528C202.59,96.096,203.105,98.831,203.105,101.79z M197.08,101.79c0-2.177-0.352-4.213-1.047-6.112
		c-0.699-1.896-1.688-3.539-2.973-4.938c-1.285-1.396-2.832-2.498-4.646-3.307s-3.863-1.214-6.152-1.214s-4.338,0.405-6.15,1.214
		c-1.815,0.809-3.352,1.911-4.606,3.307c-1.256,1.398-2.229,3.042-2.928,4.938c-0.699,1.899-1.051,3.938-1.051,6.112
		s0.352,4.215,1.051,6.108c0.696,1.896,1.672,3.547,2.928,4.939c1.256,1.396,2.793,2.496,4.606,3.307
		c1.813,0.812,3.861,1.215,6.15,1.215s4.338-0.403,6.152-1.215c1.813-0.811,3.361-1.908,4.646-3.307
		c1.284-1.395,2.271-3.043,2.973-4.939C196.729,106.003,197.08,103.966,197.08,101.79z"/>
	<path fill="#3D3D3F" d="M190.246,113.001l-4.406-13.795h6.531l2.283,7.705C192.717,111.534,190.246,113.001,190.246,113.001z"/>
	<path fill="#3D3D3F" d="M247.035,75.92L229.1,131.954h-6.194l-10.382-32.146h-0.166l-10.379,32.146h-6.194l-3.136-10.149
		c0,0,2.191-0.812,4.679-2.914l1.641,5.696h0.164l10.467-31.81h5.691l10.463,31.81h0.168l15.783-49.288"/>
	<g>
		<path fill="#3D3D3F" d="M123.156,131.956h-6.189V53.231h6.189V131.956z"/>
		<path fill="#3D3D3F" d="M174.869,53.231c0,4.235-0.729,8.13-2.195,11.688c-1.467,3.56-3.493,6.633-6.082,9.222
			c-2.588,2.591-5.646,4.616-9.178,6.082c-3.533,1.461-7.363,2.196-11.496,2.196s-7.963-0.735-11.494-2.196
			c-3.529-1.465-6.59-3.49-9.178-6.082c-2.59-2.588-4.617-5.662-6.082-9.222c-1.465-3.558-2.199-7.452-2.199-11.688
			c0-4.237,0.734-8.134,2.199-11.692c1.463-3.556,3.491-6.628,6.082-9.22c2.588-2.588,5.646-4.611,9.178-6.078
			c3.531-1.463,7.361-2.197,11.494-2.197s7.963,0.734,11.496,2.197c3.53,1.467,6.59,3.49,9.178,6.078
			c2.588,2.592,4.615,5.664,6.082,9.22C174.14,45.098,174.869,48.995,174.869,53.231z M168.752,53.231
			c0-3.188-0.523-6.238-1.57-9.14c-1.049-2.905-2.551-5.455-4.512-7.65c-1.961-2.199-4.354-3.947-7.18-5.256
			c-2.824-1.305-6.016-1.965-9.572-1.965s-6.746,0.66-9.569,1.965c-2.827,1.309-5.22,3.057-7.181,5.256
			c-1.963,2.195-3.465,4.746-4.51,7.65c-1.049,2.901-1.57,5.952-1.57,9.14c0,3.19,0.521,6.236,1.57,9.14
			c1.045,2.901,2.547,5.452,4.51,7.649c1.961,2.198,4.354,3.952,7.181,5.257c2.823,1.307,6.015,1.962,9.569,1.962
			c3.557,0,6.748-0.655,9.572-1.962c2.827-1.305,5.219-3.059,7.18-5.257c1.961-2.197,3.463-4.748,4.512-7.649
			C168.229,59.468,168.752,56.422,168.752,53.231z"/>
		<line fill="none" x1="123.156" y1="71.786" x2="123.156" y2="82.418"/>
	</g>
	<line fill="none" x1="116.967" y1="48.93" x2="116.967" y2="128.708"/>
</g>
</svg>
