<?xml version="1.0" encoding="utf-8"?>
<!-- Generator: Adobe Illustrator 16.0.0, SVG Export Plug-In . SVG Version: 6.00 Build 0)  -->
<!DOCTYPE svg PUBLIC "-//W3C//DTD SVG 1.1//EN" "http://www.w3.org/Graphics/SVG/1.1/DTD/svg11.dtd">
<svg version="1.1" id="Capa_1" xmlns="http://www.w3.org/2000/svg" xmlns:xlink="http://www.w3.org/1999/xlink" x="0px" y="0px"
	 width="364px" height="156px" viewBox="0 0 364 156" enable-background="new 0 0 364 156" xml:space="preserve">
<g>
	<g>
		
			<image overflow="visible" opacity="0.75" width="161" height="139" xlink:href="47CEE81A.png"  transform="matrix(1 0 0 1 108.5 6.5)">
		</image>
		<g>
			<g>
				<linearGradient id="SVGID_1_" gradientUnits="userSpaceOnUse" x1="94.5376" y1="103.2314" x2="260.5762" y2="103.2314">
					<stop  offset="0" style="stop-color:#E30E6F"/>
					<stop  offset="1" style="stop-color:#622280"/>
				</linearGradient>
				<path fill="url(#SVGID_1_)" d="M137.172,87.381c0,1.169-0.418,2.135-1.255,2.888c-0.836,0.753-1.759,1.128-2.763,1.128
					c-1.005,0-1.924-0.375-2.763-1.128c-0.838-0.753-1.255-1.719-1.255-2.888c0-1.175,0.417-2.137,1.255-2.892
					c0.839-0.753,1.758-1.127,2.763-1.127c1.003,0,1.926,0.374,2.763,1.127C136.753,85.244,137.172,86.206,137.172,87.381z
					 M135.917,123.101h-5.525V94.478h5.525V123.101z"/>
				<linearGradient id="SVGID_2_" gradientUnits="userSpaceOnUse" x1="94.5396" y1="99.5479" x2="260.5745" y2="99.5479">
					<stop  offset="0" style="stop-color:#E30E6F"/>
					<stop  offset="1" style="stop-color:#622280"/>
				</linearGradient>
				<path fill="url(#SVGID_2_)" d="M148.681,75.996v47.105h-5.525V75.996C146.336,76.176,148.681,75.996,148.681,75.996z"/>
				<linearGradient id="SVGID_3_" gradientUnits="userSpaceOnUse" x1="94.5381" y1="98.1172" x2="260.573" y2="98.1172">
					<stop  offset="0" style="stop-color:#E30E6F"/>
					<stop  offset="1" style="stop-color:#622280"/>
				</linearGradient>
				<path fill="url(#SVGID_3_)" d="M159.136,73.134v49.967h-5.525V75.175C157.081,74.201,159.136,73.134,159.136,73.134z"/>
				<linearGradient id="SVGID_4_" gradientUnits="userSpaceOnUse" x1="94.5391" y1="92.9336" x2="260.5742" y2="92.9336">
					<stop  offset="0" style="stop-color:#E30E6F"/>
					<stop  offset="1" style="stop-color:#622280"/>
				</linearGradient>
				<path fill="url(#SVGID_4_)" d="M203.106,92.935c0,2.958-0.517,5.693-1.547,8.202c-1.035,2.515-2.471,4.688-4.312,6.53
					c-1.843,1.844-4.033,3.281-6.571,4.312c-2.541,1.033-5.345,1.547-8.415,1.547c-3.015,0-5.79-0.514-8.329-1.547
					c-2.542-1.03-4.731-2.468-6.571-4.312c-1.842-1.842-3.279-4.016-4.313-6.53c-1.032-2.509-1.547-5.244-1.547-8.202
					s0.515-5.693,1.547-8.204c1.034-2.511,2.471-4.688,4.313-6.53c1.84-1.841,4.029-3.277,6.571-4.31
					c2.539-1.033,5.314-1.549,8.329-1.549c3.07,0,5.874,0.516,8.415,1.549c2.538,1.032,4.729,2.469,6.571,4.31
					c1.841,1.842,3.276,4.02,4.312,6.53C202.59,87.241,203.106,89.977,203.106,92.935z M197.08,92.935
					c0-2.176-0.351-4.213-1.048-6.112c-0.699-1.896-1.686-3.54-2.972-4.938c-1.284-1.395-2.832-2.498-4.646-3.307
					c-1.815-0.808-3.864-1.213-6.153-1.213c-2.289,0-4.338,0.405-6.151,1.213c-1.815,0.809-3.351,1.912-4.606,3.307
					c-1.257,1.398-2.231,3.042-2.929,4.938c-0.699,1.899-1.05,3.937-1.05,6.112c0,2.177,0.351,4.215,1.05,6.11
					c0.697,1.897,1.672,3.546,2.929,4.94c1.255,1.396,2.792,2.496,4.606,3.305c1.813,0.812,3.862,1.216,6.151,1.216
					c2.289,0,4.338-0.404,6.153-1.216c1.813-0.809,3.361-1.908,4.646-3.305c1.286-1.395,2.272-3.043,2.972-4.94
					C196.729,97.149,197.08,95.111,197.08,92.935z"/>
				<linearGradient id="SVGID_5_" gradientUnits="userSpaceOnUse" x1="94.5322" y1="97.25" x2="260.5794" y2="97.25">
					<stop  offset="0" style="stop-color:#E30E6F"/>
					<stop  offset="1" style="stop-color:#622280"/>
				</linearGradient>
				<path fill="url(#SVGID_5_)" d="M190.246,104.146l-4.406-13.794h6.53l2.284,7.705
					C192.716,102.679,190.246,104.146,190.246,104.146z"/>
				<linearGradient id="SVGID_6_" gradientUnits="userSpaceOnUse" x1="94.541" y1="94.7725" x2="260.5729" y2="94.7725">
					<stop  offset="0" style="stop-color:#E30E6F"/>
					<stop  offset="1" style="stop-color:#622280"/>
				</linearGradient>
				<path fill="url(#SVGID_6_)" d="M247.034,67.065l-17.934,56.035h-6.195l-10.381-32.146h-0.166l-10.38,32.146h-6.196
					l-3.133-10.151c0,0,2.19-0.81,4.676-2.914l1.642,5.698h0.163l10.468-31.81h5.691l10.463,31.81h0.168l15.782-49.289"/>
				<g>
					<linearGradient id="SVGID_7_" gradientUnits="userSpaceOnUse" x1="94.5391" y1="83.7393" x2="260.5699" y2="83.7393">
						<stop  offset="0" style="stop-color:#E30E6F"/>
						<stop  offset="1" style="stop-color:#622280"/>
					</linearGradient>
					<path fill="url(#SVGID_7_)" d="M123.156,123.101h-6.19V44.377h6.19V123.101z"/>
					<linearGradient id="SVGID_8_" gradientUnits="userSpaceOnUse" x1="94.5381" y1="44.3765" x2="260.5735" y2="44.3765">
						<stop  offset="0" style="stop-color:#E30E6F"/>
						<stop  offset="1" style="stop-color:#622280"/>
					</linearGradient>
					<path fill="url(#SVGID_8_)" d="M174.868,44.377c0,4.235-0.729,8.13-2.194,11.687c-1.468,3.56-3.494,6.633-6.082,9.222
						c-2.589,2.591-5.648,4.616-9.178,6.081c-3.534,1.462-7.364,2.197-11.496,2.197c-4.133,0-7.963-0.735-11.494-2.197
						c-3.53-1.464-6.59-3.489-9.179-6.081c-2.589-2.588-4.617-5.662-6.082-9.222c-1.464-3.557-2.198-7.452-2.198-11.687
						c0-4.238,0.733-8.134,2.198-11.693c1.464-3.555,3.492-6.628,6.082-9.219c2.589-2.588,5.648-4.612,9.179-6.078
						c3.531-1.463,7.361-2.198,11.494-2.198c4.132,0,7.962,0.735,11.496,2.198c3.53,1.466,6.589,3.49,9.178,6.078
						c2.587,2.591,4.614,5.664,6.082,9.219C174.139,36.243,174.868,40.14,174.868,44.377z M168.751,44.377
						c0-3.188-0.524-6.239-1.57-9.14c-1.048-2.905-2.55-5.455-4.512-7.65c-1.961-2.2-4.352-3.948-7.179-5.256
						c-2.825-1.305-6.015-1.965-9.572-1.965s-6.747,0.66-9.57,1.965c-2.827,1.308-5.22,3.056-7.181,5.256
						c-1.962,2.195-3.464,4.746-4.51,7.65c-1.048,2.901-1.57,5.952-1.57,9.14c0,3.19,0.522,6.236,1.57,9.139
						c1.046,2.902,2.548,5.453,4.51,7.65c1.961,2.198,4.354,3.952,7.181,5.257c2.823,1.306,6.014,1.962,9.57,1.962
						s6.747-0.656,9.572-1.962c2.827-1.305,5.218-3.059,7.179-5.257c1.962-2.197,3.464-4.748,4.512-7.65
						C168.227,50.613,168.751,47.567,168.751,44.377z"/>
					<linearGradient id="SVGID_9_" gradientUnits="userSpaceOnUse" x1="123.1563" y1="68.2471" x2="123.1563" y2="68.2471">
						<stop  offset="0" style="stop-color:#E30E6F"/>
						<stop  offset="1" style="stop-color:#622280"/>
					</linearGradient>
					<line fill="url(#SVGID_9_)" x1="123.156" y1="62.931" x2="123.156" y2="73.563"/>
				</g>
				<linearGradient id="SVGID_10_" gradientUnits="userSpaceOnUse" x1="116.9658" y1="79.9648" x2="116.9658" y2="79.9648">
					<stop  offset="0" style="stop-color:#E30E6F"/>
					<stop  offset="1" style="stop-color:#622280"/>
				</linearGradient>
				<line fill="url(#SVGID_10_)" x1="116.966" y1="40.075" x2="116.966" y2="119.854"/>
			</g>
		</g>
	</g>
	<g>
		
			<image overflow="visible" opacity="0.75" width="100" height="40" xlink:href="47CEE81E.png"  transform="matrix(1 0 0 1 135.5 123.5)">
		</image>
		<g>
			<g>
				<path fill="#3D3D3F" d="M144.312,132.492h5.141v0.901h-4.172v2.564h3.895v0.9h-3.895v2.911h4.379v0.901h-5.348V132.492z"/>
				<path fill="#3D3D3F" d="M157.806,139.713h-0.023c-0.17,0.308-0.437,0.566-0.803,0.779c-0.367,0.211-0.792,0.318-1.277,0.318
					c-0.377,0-0.733-0.071-1.064-0.215c-0.331-0.143-0.617-0.341-0.86-0.595s-0.433-0.555-0.572-0.901
					c-0.138-0.348-0.207-0.723-0.207-1.132c0-0.408,0.069-0.785,0.207-1.132c0.14-0.348,0.333-0.647,0.578-0.901
					c0.247-0.254,0.545-0.452,0.896-0.594c0.351-0.144,0.737-0.215,1.161-0.215c0.393,0,0.753,0.081,1.08,0.243
					c0.329,0.161,0.615,0.388,0.862,0.682h0.023v-4.113h0.901v8.733h-0.901V139.713z M157.806,137.968
					c0-0.284-0.045-0.549-0.133-0.791c-0.089-0.243-0.218-0.456-0.388-0.637c-0.17-0.18-0.372-0.323-0.606-0.427
					c-0.236-0.104-0.499-0.155-0.792-0.155c-0.292,0-0.556,0.052-0.791,0.155c-0.236,0.104-0.438,0.247-0.606,0.427
					c-0.17,0.181-0.3,0.394-0.388,0.637c-0.087,0.242-0.132,0.507-0.132,0.791s0.045,0.549,0.132,0.792
					c0.088,0.243,0.218,0.454,0.388,0.635c0.168,0.181,0.37,0.323,0.606,0.428c0.234,0.104,0.499,0.157,0.791,0.157
					c0.293,0,0.556-0.054,0.792-0.157c0.234-0.104,0.437-0.247,0.606-0.428s0.298-0.392,0.388-0.635
					C157.761,138.517,157.806,138.252,157.806,137.968z"/>
				<path fill="#3D3D3F" d="M167.394,139.389c0,0.247,0.007,0.478,0.023,0.694c0.016,0.215,0.023,0.411,0.023,0.588h-0.854
					c0-0.146-0.004-0.293-0.011-0.438c-0.009-0.147-0.013-0.297-0.013-0.451h-0.023c-0.061,0.131-0.148,0.258-0.259,0.381
					c-0.111,0.122-0.245,0.232-0.398,0.329c-0.156,0.097-0.327,0.174-0.521,0.23c-0.193,0.06-0.4,0.088-0.624,0.088
					c-0.354,0-0.658-0.056-0.917-0.163c-0.259-0.106-0.472-0.257-0.642-0.45c-0.17-0.191-0.295-0.426-0.375-0.699
					c-0.081-0.273-0.122-0.57-0.122-0.896v-3.337h0.901v3.245c0,0.454,0.1,0.813,0.301,1.075c0.2,0.261,0.513,0.394,0.935,0.394
					c0.293,0,0.547-0.051,0.758-0.15c0.211-0.101,0.384-0.243,0.519-0.43c0.136-0.184,0.234-0.403,0.302-0.657
					c0.064-0.254,0.097-0.535,0.097-0.843v-2.634h0.901V139.389z"/>
				<path fill="#3D3D3F" d="M175.261,136.615c-0.193-0.23-0.4-0.398-0.624-0.502c-0.223-0.104-0.47-0.155-0.738-0.155
					c-0.3,0-0.567,0.052-0.799,0.155c-0.229,0.104-0.42,0.248-0.57,0.435c-0.15,0.184-0.263,0.396-0.34,0.64
					c-0.079,0.243-0.116,0.505-0.116,0.78c0,0.276,0.044,0.538,0.134,0.779c0.086,0.243,0.211,0.458,0.369,0.642
					c0.157,0.187,0.349,0.329,0.572,0.434c0.223,0.104,0.474,0.157,0.751,0.157c0.592,0,1.051-0.224,1.373-0.671l0.671,0.635
					c-0.261,0.301-0.571,0.521-0.925,0.658c-0.354,0.14-0.728,0.209-1.119,0.209c-0.417,0-0.799-0.069-1.145-0.209
					c-0.347-0.138-0.64-0.335-0.883-0.589s-0.431-0.554-0.567-0.9c-0.134-0.348-0.202-0.729-0.202-1.145
					c0-0.408,0.068-0.785,0.202-1.132c0.136-0.348,0.326-0.647,0.572-0.901s0.542-0.452,0.883-0.594
					c0.343-0.144,0.723-0.215,1.139-0.215c0.4,0,0.78,0.07,1.137,0.208c0.357,0.139,0.672,0.354,0.942,0.646L175.261,136.615z"/>
				<path fill="#3D3D3F" d="M179.224,135.958c0.277-0.285,0.608-0.496,0.989-0.63s0.767-0.202,1.16-0.202
					c0.801,0,1.379,0.189,1.733,0.567c0.354,0.375,0.53,0.949,0.53,1.72v2.323c0,0.153,0.008,0.314,0.025,0.479
					c0.015,0.167,0.032,0.316,0.058,0.456h-0.868c-0.03-0.123-0.048-0.261-0.052-0.409c-0.003-0.15-0.007-0.282-0.007-0.398h-0.021
					c-0.179,0.276-0.415,0.504-0.71,0.681c-0.297,0.178-0.654,0.267-1.069,0.267c-0.277,0-0.538-0.036-0.779-0.104
					c-0.243-0.071-0.456-0.172-0.635-0.308c-0.183-0.134-0.327-0.303-0.435-0.503s-0.163-0.431-0.163-0.691
					c0-0.449,0.117-0.798,0.347-1.052c0.232-0.254,0.519-0.443,0.862-0.566c0.342-0.124,0.712-0.2,1.109-0.231
					c0.397-0.03,0.76-0.046,1.092-0.046h0.346v-0.161c0-0.394-0.118-0.69-0.353-0.891s-0.563-0.3-0.987-0.3
					c-0.293,0-0.579,0.048-0.862,0.145c-0.281,0.097-0.527,0.245-0.744,0.445L179.224,135.958z M181.834,138.071
					c-0.578,0-1.035,0.082-1.375,0.243c-0.338,0.161-0.508,0.428-0.508,0.798c0,0.339,0.115,0.579,0.341,0.722
					c0.228,0.142,0.51,0.213,0.85,0.213c0.261,0,0.49-0.043,0.687-0.132c0.197-0.09,0.361-0.206,0.492-0.353
					c0.129-0.146,0.231-0.318,0.3-0.515c0.068-0.195,0.107-0.406,0.115-0.63v-0.347H181.834z"/>
				<path fill="#3D3D3F" d="M190.558,136.027h-1.596v2.704c0,0.177,0.006,0.339,0.013,0.489s0.038,0.283,0.093,0.394
					c0.054,0.111,0.135,0.2,0.241,0.267c0.109,0.064,0.264,0.099,0.464,0.099c0.129,0,0.265-0.017,0.404-0.047
					c0.139-0.032,0.268-0.077,0.393-0.14l0.034,0.821c-0.153,0.069-0.325,0.118-0.515,0.149c-0.188,0.031-0.366,0.047-0.536,0.047
					c-0.324,0-0.583-0.043-0.774-0.127c-0.193-0.086-0.342-0.205-0.451-0.359c-0.107-0.152-0.179-0.344-0.213-0.57
					c-0.035-0.228-0.054-0.481-0.054-0.758v-2.969h-1.176v-0.762h1.176v-1.538h0.901v1.538h1.596V136.027z"/>
				<path fill="#3D3D3F" d="M193.86,133.15c0-0.178,0.063-0.331,0.19-0.462c0.127-0.132,0.283-0.196,0.469-0.196
					c0.185,0,0.342,0.064,0.467,0.196c0.127,0.131,0.191,0.284,0.191,0.462c0,0.193-0.061,0.351-0.184,0.474
					c-0.124,0.123-0.283,0.185-0.475,0.185c-0.193,0-0.351-0.062-0.474-0.185S193.86,133.344,193.86,133.15z M194.069,135.266h0.901
					v5.405h-0.901V135.266z"/>
				<path fill="#3D3D3F" d="M198.76,137.968c0-0.422,0.073-0.809,0.22-1.155s0.345-0.644,0.601-0.896
					c0.254-0.248,0.558-0.443,0.912-0.582c0.354-0.138,0.74-0.208,1.155-0.208c0.417,0,0.801,0.07,1.155,0.208
					c0.354,0.139,0.659,0.334,0.912,0.582c0.255,0.253,0.454,0.55,0.601,0.896s0.222,0.733,0.222,1.155
					c0,0.424-0.075,0.808-0.222,1.155c-0.146,0.347-0.346,0.646-0.601,0.896c-0.253,0.25-0.559,0.445-0.912,0.583
					c-0.354,0.14-0.738,0.209-1.155,0.209c-0.415,0-0.801-0.069-1.155-0.209c-0.354-0.138-0.658-0.333-0.912-0.583
					c-0.256-0.25-0.454-0.549-0.601-0.896C198.833,138.775,198.76,138.392,198.76,137.968z M199.729,137.968
					c0,0.284,0.045,0.549,0.135,0.792c0.087,0.243,0.218,0.454,0.386,0.635c0.17,0.181,0.372,0.323,0.608,0.428
					c0.233,0.104,0.497,0.157,0.79,0.157c0.291,0,0.556-0.054,0.792-0.157c0.234-0.104,0.437-0.247,0.606-0.428
					s0.299-0.392,0.388-0.635c0.088-0.243,0.131-0.508,0.131-0.792s-0.043-0.549-0.131-0.791c-0.089-0.243-0.218-0.456-0.388-0.637
					c-0.17-0.18-0.372-0.323-0.606-0.427c-0.236-0.104-0.501-0.155-0.792-0.155c-0.293,0-0.557,0.052-0.79,0.155
					c-0.236,0.104-0.438,0.247-0.608,0.427c-0.168,0.181-0.299,0.394-0.386,0.637C199.773,137.419,199.729,137.684,199.729,137.968z
					"/>
				<path fill="#3D3D3F" d="M208.244,136.548c0-0.247-0.008-0.479-0.023-0.694c-0.015-0.216-0.023-0.411-0.023-0.588h0.856
					c0,0.145,0.004,0.291,0.011,0.438c0.007,0.146,0.013,0.296,0.013,0.45h0.021c0.063-0.131,0.148-0.258,0.261-0.381
					c0.111-0.123,0.245-0.232,0.399-0.329c0.151-0.097,0.327-0.175,0.519-0.232s0.4-0.086,0.624-0.086
					c0.354,0,0.661,0.054,0.919,0.161c0.258,0.109,0.47,0.259,0.64,0.45c0.17,0.193,0.295,0.426,0.378,0.699
					c0.08,0.273,0.119,0.572,0.119,0.896v3.338h-0.9v-3.245c0-0.454-0.101-0.813-0.301-1.075c-0.2-0.263-0.512-0.393-0.936-0.393
					c-0.293,0-0.545,0.05-0.756,0.149c-0.213,0.101-0.385,0.243-0.521,0.428c-0.134,0.185-0.236,0.404-0.301,0.66
					c-0.064,0.254-0.098,0.534-0.098,0.842v2.634h-0.901V136.548z"/>
			</g>
		</g>
	</g>
</g>
</svg>
