<?xml version="1.0" encoding="utf-8"?>
<!-- Generator: Adobe Illustrator 16.0.0, SVG Export Plug-In . SVG Version: 6.00 Build 0)  -->
<!DOCTYPE svg PUBLIC "-//W3C//DTD SVG 1.1//EN" "http://www.w3.org/Graphics/SVG/1.1/DTD/svg11.dtd">
<svg version="1.1" xmlns="http://www.w3.org/2000/svg" xmlns:xlink="http://www.w3.org/1999/xlink" x="0px" y="0px" width="363.5px"
	 height="156px" viewBox="0 0 363.5 156" enable-background="new 0 0 363.5 156" xml:space="preserve">
<g id="Layer_2">
	<g>
		<defs>
			<rect id="SVGID_5_" x="-1385.838" width="1365.676" height="768"/>
		</defs>
		<clipPath id="SVGID_2_">
			<use xlink:href="#SVGID_5_"  overflow="visible"/>
		</clipPath>
		<g transform="matrix(1 0 0 1 -1.220703e-004 0)" clip-path="url(#SVGID_2_)">
			
				<image overflow="visible" width="1920" height="1080" xlink:href="BA083010.jpg"  transform="matrix(1.1412 0 0 1.1452 -1521.6426 -51.2007)">
			</image>
		</g>
	</g>
</g>
<g id="Layer_1">
	<g>
		<g>
			<g>
				<path fill="#FFFFFF" d="M2.656,124.431h5.15c2.953,0,4.945,0.129,5.977,0.387c1.477,0.363,2.684,1.11,3.621,2.241
					s1.406,2.552,1.406,4.263c0,1.723-0.457,3.144-1.371,4.263s-2.174,1.872-3.779,2.259c-1.172,0.281-3.363,0.422-6.574,0.422H5.24
					v12.023H2.656V124.431z M5.24,126.962v8.771l4.377,0.053c1.77,0,3.064-0.161,3.885-0.482c0.82-0.321,1.465-0.842,1.934-1.562
					c0.469-0.719,0.703-1.523,0.703-2.412c0-0.865-0.234-1.658-0.703-2.377s-1.086-1.231-1.854-1.535
					c-0.768-0.304-2.025-0.456-3.771-0.456H5.24z"/>
				<path fill="#FFFFFF" d="M29.977,132.188h1.809v18.1h-1.809V132.188z"/>
				<path fill="#FFFFFF" d="M40.973,132.188h1.809v16.353h6.964v1.747h-8.772V132.188z"/>
				<path fill="#FFFFFF" d="M57.652,132.188h1.809v16.353h6.965v1.747h-8.773V132.188z"/>
				<path fill="#FFFFFF" d="M82.951,131.733c2.742,0,5.036,0.915,6.883,2.744c1.848,1.83,2.771,4.081,2.771,6.755
					c0,2.649-0.922,4.897-2.766,6.743c-1.842,1.846-4.089,2.769-6.74,2.769c-2.684,0-4.949-0.918-6.797-2.756
					c-1.847-1.837-2.77-4.061-2.77-6.669c0-1.739,0.42-3.351,1.262-4.835c0.841-1.485,1.988-2.647,3.441-3.489
					C79.689,132.154,81.261,131.733,82.951,131.733z M83.031,133.493c-1.339,0-2.608,0.349-3.808,1.047
					c-1.2,0.698-2.137,1.638-2.81,2.82c-0.674,1.182-1.012,2.5-1.012,3.953c0,2.151,0.746,3.967,2.237,5.449
					s3.288,2.223,5.392,2.223c1.405,0,2.705-0.341,3.901-1.022c1.195-0.682,2.128-1.613,2.798-2.795
					c0.669-1.182,1.004-2.496,1.004-3.941c0-1.437-0.335-2.736-1.004-3.897c-0.67-1.162-1.613-2.091-2.828-2.789
					C85.686,133.842,84.396,133.493,83.031,133.493z"/>
				<path fill="#FFFFFF" d="M100.254,132.188h1.857l3.697,13.043l5.189-13.043h0.375l5.129,13.043l3.761-13.043h1.844l-5.2,18.1
					h-0.336l-5.371-13.695l-5.477,13.695h-0.338L100.254,132.188z"/>
				<path fill="#FFFFFF" d="M172.699,129.23l-2.039,1.564c-1.125-1.465-2.477-2.575-4.053-3.331s-3.307-1.134-5.193-1.134
					c-2.063,0-3.973,0.495-5.73,1.485s-3.121,2.32-4.088,3.99s-1.449,3.548-1.449,5.634c0,3.152,1.08,5.783,3.242,7.893
					s4.891,3.164,8.184,3.164c3.621,0,6.65-1.418,9.088-4.254l2.039,1.547c-1.289,1.641-2.898,2.909-4.826,3.806
					s-4.08,1.345-6.459,1.345c-4.523,0-8.092-1.506-10.705-4.518c-2.191-2.543-3.287-5.613-3.287-9.211
					c0-3.785,1.326-6.97,3.98-9.554s5.98-3.876,9.977-3.876c2.414,0,4.594,0.478,6.539,1.433S171.457,127.507,172.699,129.23z"/>
				<path fill="#FFFFFF" d="M192.76,131.733c2.741,0,5.035,0.915,6.883,2.744c1.846,1.83,2.77,4.081,2.77,6.755
					c0,2.649-0.921,4.897-2.764,6.743c-1.844,1.846-4.09,2.769-6.741,2.769c-2.685,0-4.95-0.918-6.797-2.756
					s-2.771-4.061-2.771-6.669c0-1.739,0.421-3.351,1.262-4.835c0.842-1.485,1.989-2.647,3.441-3.489
					C189.496,132.154,191.068,131.733,192.76,131.733z M192.84,133.493c-1.34,0-2.609,0.349-3.809,1.047s-2.137,1.638-2.811,2.82
					s-1.01,2.5-1.01,3.953c0,2.151,0.745,3.967,2.236,5.449s3.289,2.223,5.393,2.223c1.404,0,2.705-0.341,3.9-1.022
					c1.195-0.682,2.128-1.613,2.797-2.795c0.67-1.182,1.005-2.496,1.005-3.941c0-1.437-0.335-2.736-1.005-3.897
					c-0.669-1.162-1.611-2.091-2.828-2.789C195.493,133.842,194.203,133.493,192.84,133.493z"/>
				<path fill="#FFFFFF" d="M211.095,150.289v-18.1h0.394l12.047,13.875v-13.875h1.783v18.1h-0.405l-11.948-13.706v13.706H211.095z"
					/>
				<path fill="#FFFFFF" d="M232.894,146.917l1.538-0.923c1.083,1.994,2.334,2.99,3.753,2.99c0.606,0,1.177-0.142,1.71-0.425
					c0.533-0.283,0.939-0.662,1.219-1.138c0.279-0.476,0.418-0.98,0.418-1.513c0-0.607-0.205-1.202-0.615-1.784
					c-0.565-0.804-1.6-1.772-3.101-2.904c-1.509-1.14-2.448-1.965-2.817-2.474c-0.641-0.853-0.96-1.776-0.96-2.769
					c0-0.787,0.188-1.505,0.565-2.153c0.378-0.648,0.909-1.158,1.594-1.532c0.686-0.373,1.43-0.56,2.233-0.56
					c0.853,0,1.651,0.211,2.394,0.634c0.742,0.423,1.527,1.2,2.356,2.332l-1.477,1.12c-0.681-0.902-1.261-1.497-1.741-1.784
					s-1.003-0.431-1.568-0.431c-0.73,0-1.328,0.221-1.791,0.665c-0.463,0.443-0.695,0.988-0.695,1.636
					c0,0.394,0.082,0.775,0.246,1.145s0.463,0.771,0.898,1.206c0.238,0.23,1.018,0.833,2.338,1.809
					c1.566,1.157,2.641,2.186,3.224,3.088s0.874,1.809,0.874,2.719c0,1.313-0.498,2.453-1.495,3.421s-2.209,1.452-3.636,1.452
					c-1.1,0-2.096-0.293-2.99-0.879S233.648,148.295,232.894,146.917z"/>
				<path fill="#FFFFFF" d="M252.416,132.188h1.809v10.926c0,1.296,0.025,2.104,0.074,2.424c0.09,0.713,0.299,1.311,0.628,1.79
					c0.327,0.48,0.833,0.882,1.513,1.206c0.682,0.324,1.366,0.486,2.056,0.486c0.599,0,1.173-0.127,1.723-0.381
					c0.55-0.254,1.009-0.607,1.378-1.058s0.64-0.997,0.813-1.637c0.123-0.459,0.184-1.402,0.184-2.83v-10.926h1.81v10.926
					c0,1.616-0.158,2.922-0.474,3.919c-0.316,0.997-0.947,1.864-1.895,2.602c-0.948,0.738-2.095,1.107-3.439,1.107
					c-1.461,0-2.711-0.349-3.754-1.046c-1.041-0.697-1.738-1.62-2.092-2.769c-0.221-0.705-0.332-1.977-0.332-3.814V132.188z"/>
				<path fill="#FFFFFF" d="M273.896,132.188h1.809v16.353h6.964v1.747h-8.772V132.188z"/>
				<path fill="#FFFFFF" d="M288.779,133.96v-1.772h9.918v1.772h-4.037v16.328h-1.846V133.96H288.779z"/>
				<path fill="#FFFFFF" d="M306.088,132.188h1.809v18.1h-1.809V132.188z"/>
				<path fill="#FFFFFF" d="M317.095,150.289v-18.1h0.394l12.047,13.875v-13.875h1.783v18.1h-0.405l-11.948-13.706v13.706H317.095z"
					/>
				<path fill="#FFFFFF" d="M358.225,135.228l-1.402,1.329c-1.01-0.993-2.115-1.745-3.316-2.258
					c-1.202-0.513-2.373-0.769-3.514-0.769c-1.419,0-2.771,0.349-4.055,1.046c-1.283,0.697-2.277,1.643-2.983,2.836
					c-0.706,1.194-1.058,2.455-1.058,3.784c0,1.362,0.365,2.656,1.095,3.882s1.739,2.19,3.026,2.892
					c1.289,0.701,2.699,1.052,4.233,1.052c1.862,0,3.437-0.525,4.726-1.575c1.287-1.05,2.051-2.412,2.288-4.085h-5.771v-1.747h7.801
					c-0.017,2.797-0.848,5.019-2.492,6.663s-3.845,2.467-6.602,2.467c-3.346,0-5.996-1.14-7.948-3.42
					c-1.501-1.755-2.252-3.786-2.252-6.091c0-1.714,0.431-3.31,1.292-4.787s2.043-2.631,3.544-3.464
					c1.501-0.833,3.199-1.249,5.095-1.249c1.533,0,2.977,0.277,4.33,0.831S356.937,134.005,358.225,135.228z"/>
			</g>
		</g>
		<path fill-rule="evenodd" clip-rule="evenodd" fill="#FFFFFF" d="M228.588,11.853c0,0,14.092,18.09,13.955,48.528
			c0,0,4.049,3.863,3.097,8.445c-0.952,4.581-10.085,4.171-10.085,4.171s-13.329,13.54-35.309,18.351
			c-21.98,4.812-41.089,4.172-41.089,4.172s-6.329,5.516-11.503,3.32c-5.173-2.197-3.045-8.687-3.045-8.687
			s-9.74-15.166-12.772-26.452c-2.966-11.047-5.035-24.85-5.035-24.85s-4.661-3.565-4.616-7.051
			c0.025-1.924-0.158-6.495,8.042-6.442c0,0,21.665-14.433,39.405-18.725c17.738-4.293,42.455-3.75,42.455-3.75
			s5.973-4.988,12.402-1.848C230.92,4.179,228.588,11.853,228.588,11.853z"/>
	</g>
</g>
</svg>
