<?xml version="1.0" encoding="UTF-8" standalone="no"?>
<!-- Created with Inkscape (http://www.inkscape.org/) -->

<svg
   xmlns:dc="http://purl.org/dc/elements/1.1/"
   xmlns:cc="http://creativecommons.org/ns#"
   xmlns:rdf="http://www.w3.org/1999/02/22-rdf-syntax-ns#"
   xmlns:svg="http://www.w3.org/2000/svg"
   xmlns="http://www.w3.org/2000/svg"
   xmlns:xlink="http://www.w3.org/1999/xlink"
   xmlns:sodipodi="http://sodipodi.sourceforge.net/DTD/sodipodi-0.dtd"
   xmlns:inkscape="http://www.inkscape.org/namespaces/inkscape"
   width="50"
   height="50"
   id="svg2"
   version="1.1"
   inkscape:version="0.48.4 r9939"
   sodipodi:docname="twitter.svg">
  <defs
     id="defs4">
    <color-profile
       name="Beta-RGB"
       xlink:href="/usr/share/color/icc/colord/BetaRGB.icc"
       id="color-profile3135" />
  </defs>
  <sodipodi:namedview
     id="base"
     pagecolor="#ffffff"
     bordercolor="#666666"
     borderopacity="1.0"
     inkscape:pageopacity="0.0"
     inkscape:pageshadow="2"
     inkscape:zoom="1.979899"
     inkscape:cx="-2.1982932"
     inkscape:cy="-85.479195"
     inkscape:document-units="pt"
     inkscape:current-layer="layer1"
     showgrid="false"
     inkscape:snap-page="true"
     inkscape:window-width="1631"
     inkscape:window-height="1026"
     inkscape:window-x="1969"
     inkscape:window-y="24"
     inkscape:window-maximized="1" />
  <metadata
     id="metadata7">
    <rdf:RDF>
      <cc:Work
         rdf:about="">
        <dc:format>image/svg+xml</dc:format>
        <dc:type
           rdf:resource="http://purl.org/dc/dcmitype/StillImage" />
        <dc:title></dc:title>
      </cc:Work>
    </rdf:RDF>
  </metadata>
  <g
     inkscape:label="Layer 1"
     inkscape:groupmode="layer"
     id="layer1"
     transform="translate(0,-1002.3622)">
    <path
       d="m 43.811469,1025.5888 c 2.729017,-0.2252 4.579672,-1.4657 5.292292,-3.149 -0.98471,0.6046 -4.040345,1.2638 -5.727962,0.6359 -0.0826,-0.3962 -0.174914,-0.7731 -0.26561,-1.1132 -1.285963,-4.7216 -5.688553,-8.5255 -10.301697,-8.0661 0.37305,-0.1506 0.751488,-0.291 1.129398,-0.4168 0.507469,-0.1819 3.48698,-0.6667 3.017838,-1.7183 -0.395718,-0.9248 -4.035485,0.6991 -4.720571,0.9112 0.90427,-0.3401 2.400773,-0.9253 2.560577,-1.9651 -1.38583,0.1901 -2.746289,0.8455 -3.797409,1.7983 0.379523,-0.4086 0.667272,-0.9065 0.728279,-1.4425 -3.696992,2.3619 -5.85645,7.1235 -7.60399,11.7421 -1.372335,-1.3298 -2.588654,-2.3771 -3.67972,-2.9585 -3.06103,-1.6418 -6.720767,-3.3542 -12.4660089,-5.4872 -0.1765401,1.9009 0.9399047,4.4285 4.1569569,6.1091 -0.696962,-0.093 -1.971584,0.115 -2.9908525,0.359 0.4151587,2.1778 1.7707565,3.9718 5.4412985,4.8394 -1.677361,0.1107 -2.544383,0.4923 -3.329887,1.3151 0.763907,1.5143 2.628065,3.2969 5.981704,2.9309 -3.728309,1.6072 -1.520262,4.5835 1.513775,4.1392 -5.175681,5.3457 -13.3357348,4.9532 -18.02121317,0.482 12.23387117,16.6705 38.82759117,9.8591 42.79073517,-6.1981 2.968713,0.025 4.71464,-1.0285 5.797063,-2.1903 -1.710827,0.2905 -4.189886,-0.01 -5.504996,-0.5571 z"
       id="Twitter__x28_alt_x29_"
       inkscape:connector-curvature="0"
       style="fill:#ffffff" />
    <path
       id="path2995"
       d="M 104.81512,1001.8754 H 67.423674 c -3.481924,0 -6.305247,2.8234 -6.305247,6.3043 v 37.3905 c 0,3.4819 2.823323,6.3052 6.305247,6.3052 h 37.391446 c 3.48006,0 6.30338,-2.8233 6.30338,-6.3052 v -37.3905 c 7.8e-4,-3.4809 -2.82239,-6.3043 -6.30338,-6.3043 z m -18.696195,17.6748 c 4.04008,0 7.32573,3.2865 7.32573,7.3257 0,4.04 -3.28565,7.3257 -7.32573,7.3257 -4.039149,0 -7.325719,-3.2857 -7.325719,-7.3257 0,-4.0392 3.28657,-7.3257 7.325719,-7.3257 z m 19.186425,23.3558 c 0,1.7405 -1.61957,3.1563 -3.361,3.1563 H 70.416298 c -1.742363,0 -3.483794,-1.4149 -3.483794,-3.1563 v -15.7641 c 0,-1.7404 1.741431,-3.173 3.483794,-3.173 h 1.757241 c 0.331169,0 0.64652,0.1432 0.86606,0.3916 0.218611,0.2493 0.320941,0.5814 0.278151,0.9098 -0.0688,0.5256 -0.106051,1.0614 -0.106051,1.6056 0,7.1164 5.789878,12.9072 12.907226,12.9072 7.11642,0 12.90723,-5.7908 12.90723,-12.9072 0,-0.5442 -0.0372,-1.08 -0.10512,-1.6056 -0.0437,-0.3293 0.0577,-0.6605 0.27629,-0.9107 0.21955,-0.2493 0.5349,-0.3917 0.867925,-0.3917 h 1.88004 c 1.74142,0 3.361,1.4326 3.361,3.174 v 15.7641 z m 7.9e-4,-29.0676 0,0 c -7.9e-4,1.7414 -1.41306,3.1536 -3.15356,3.1536 h -2.996345 c -1.74235,0 -3.15447,-1.4122 -3.15447,-3.1536 v -2.9963 c 0,-1.7405 1.41212,-3.1527 3.15447,-3.1527 h 2.996345 c 1.7405,0 3.15356,1.4122 3.15356,3.1527 v 2.9963 z"
       inkscape:connector-curvature="0"
       style="fill:#782121" />
    <path
       d="m 188.36967,1012.7785 c 0,-4.3789 -3.95334,-8.3339 -8.33334,-8.3339 h -33.33334 c -4.38,0 -8.33333,3.955 -8.33333,8.3339 v 33.3322 c 0,4.3789 3.95333,8.3339 8.33389,8.3339 h 16.66612 v -18.8889 h -6.11112 v -8.3333 h 6.11112 v -3.2467 c 0,-5.5994 4.205,-10.6422 9.375,-10.6422 h 6.73611 v 8.3333 h -6.73611 c -0.73723,0 -1.59723,0.895 -1.59723,2.2356 v 3.32 h 8.33334 v 8.3333 h -8.33334 v 18.8889 h 8.88889 c 4.38,0 8.33334,-3.955 8.33334,-8.3339 v -33.3322 z"
       id="Facebook__x28_alt_x29_"
       inkscape:connector-curvature="0"
       style="fill:#f4d7d7" />
  </g>
</svg>
